<svg width="537" height="367" viewBox="0 0 537 367" fill="none" xmlns="http://www.w3.org/2000/svg">
<path d="M35.76 41.36C39.12 41.68 41.8667 43.0133 44 45.36C46.1867 47.6533 47.28 50.6933 47.28 54.48C47.28 59.28 45.68 63.0667 42.48 65.84C39.28 68.6133 34.9067 70 29.36 70H5.44V14H28.48C34.0267 14 38.4 15.3067 41.6 17.92C44.8533 20.48 46.48 24.0267 46.48 28.56C46.48 32.1333 45.52 35.0133 43.6 37.2C41.68 39.3333 39.0667 40.72 35.76 41.36ZM25.6 23.36H18.4V36.96H25.6C28.0533 36.96 29.9733 36.3733 31.36 35.2C32.8 33.9733 33.52 32.2933 33.52 30.16C33.52 28.0267 32.8267 26.3733 31.44 25.2C30.0533 23.9733 28.1067 23.36 25.6 23.36ZM26.48 60.16C28.88 60.16 30.7733 59.52 32.16 58.24C33.5467 56.9067 34.24 55.0933 34.24 52.8C34.24 50.72 33.52 49.0667 32.08 47.84C30.6933 46.56 28.8267 45.92 26.48 45.92H18.4V60.16H26.48ZM56.2838 70V14H90.5238V24.4H69.2438V37.12H90.5238V47.28H69.2438V59.6H90.5238V70H56.2838ZM118.965 71.6C112.085 71.6 106.698 69.8667 102.805 66.4C98.9117 62.88 96.965 57.9733 96.965 51.68H109.925C109.925 54.72 110.725 57.0933 112.325 58.8C113.978 60.5067 116.218 61.36 119.045 61.36C121.445 61.36 123.285 60.8267 124.565 59.76C125.898 58.6933 126.565 57.1733 126.565 55.2C126.565 53.4933 126.058 52.1333 125.045 51.12C124.085 50.0533 122.325 49.0133 119.765 48L109.685 44.08C102.112 41.2533 98.325 36.16 98.325 28.8C98.325 23.84 100.112 19.8667 103.685 16.88C107.312 13.8933 112.165 12.4 118.245 12.4C124.432 12.4 129.392 14.0267 133.125 17.28C136.858 20.48 138.725 24.7733 138.725 30.16H125.765C125.765 27.5467 125.098 25.5467 123.765 24.16C122.432 22.7733 120.512 22.08 118.005 22.08C115.925 22.08 114.272 22.5867 113.045 23.6C111.872 24.56 111.285 25.8933 111.285 27.6C111.285 29.1467 111.872 30.48 113.045 31.6C114.218 32.6667 116.192 33.76 118.965 34.88L128.245 38.56C135.765 41.4933 139.525 46.7467 139.525 54.32C139.525 59.5467 137.632 63.7333 133.845 66.88C130.112 70.0267 125.152 71.6 118.965 71.6ZM157.588 70V25.52H142.228V14H185.908V25.52H170.468V70H157.588ZM15.76 158V113.52H0.4V102H44.08V113.52H28.64V158H15.76ZM94.8131 122.24C94.8131 126.293 93.8798 129.92 92.0131 133.12C90.1465 136.267 87.5865 138.64 84.3331 140.24L94.1731 158H79.4531L70.6531 142.48H63.8531V158H50.8931V102H74.7331C80.5465 102 85.3465 103.92 89.1331 107.76C92.9198 111.547 94.8131 116.373 94.8131 122.24ZM63.8531 112.56V131.92H72.7331C75.3465 131.92 77.4798 131.013 79.1331 129.2C80.8398 127.387 81.6931 125.067 81.6931 122.24C81.6931 119.413 80.8398 117.093 79.1331 115.28C77.4798 113.467 75.3465 112.56 72.7331 112.56H63.8531ZM136.488 158L134.568 151.2H114.728L112.808 158H99.1281L118.088 102H131.128L150.168 158H136.488ZM117.608 141.04H131.688L124.648 116.16L117.608 141.04ZM164.138 158L145.338 102H159.258L170.858 141.52L182.458 102H196.378L177.578 158H164.138ZM202.565 158V102H236.805V112.4H215.525V125.12H236.805V135.28H215.525V147.6H236.805V158H202.565ZM248.018 158V102H260.978V146.48H281.778V158H248.018ZM5.44 246V190H39.68V200.4H18.4V213.12H39.68V223.28H18.4V235.6H39.68V246H5.44ZM106.672 218C106.672 223.867 105.232 229.2 102.352 234C99.5252 238.8 95.5519 242.373 90.4319 244.72L95.9519 251.92L84.5919 257.68L76.9919 247.6H76.7519C67.6852 247.6 60.4319 244.747 54.9919 239.04C49.5519 233.28 46.8319 226.267 46.8319 218C46.8319 209.733 49.5519 202.747 54.9919 197.04C60.4319 191.28 67.6852 188.4 76.7519 188.4C85.8185 188.4 93.0719 191.28 98.5119 197.04C103.952 202.747 106.672 209.733 106.672 218ZM76.7519 236C81.8719 236 85.8719 234.293 88.7519 230.88C91.6852 227.413 93.1519 223.12 93.1519 218C93.1519 212.88 91.6852 208.613 88.7519 205.2C85.8719 201.733 81.8719 200 76.7519 200C71.5785 200 67.5252 201.733 64.5919 205.2C61.7119 208.613 60.2985 212.88 60.3519 218C60.2985 223.12 61.7119 227.413 64.5919 230.88C67.5252 234.293 71.5785 236 76.7519 236ZM153.014 242.08C148.961 245.653 143.441 247.44 136.454 247.44C129.468 247.44 123.948 245.653 119.894 242.08C115.894 238.507 113.894 233.493 113.894 227.04V190H126.774V226.24C126.774 229.387 127.628 231.84 129.334 233.6C131.094 235.36 133.468 236.24 136.454 236.24C139.441 236.24 141.788 235.36 143.494 233.6C145.254 231.84 146.134 229.387 146.134 226.24V190H159.094V227.04C159.094 233.493 157.068 238.507 153.014 242.08ZM169.69 246V190H182.65V246H169.69ZM218.358 190C224.171 190 228.971 191.92 232.758 195.76C236.545 199.547 238.438 204.373 238.438 210.24C238.438 216.107 236.545 220.96 232.758 224.8C228.971 228.587 224.171 230.48 218.358 230.48H207.478V246H194.518V190H218.358ZM216.358 219.92C218.971 219.92 221.105 219.013 222.758 217.2C224.465 215.387 225.318 213.067 225.318 210.24C225.318 207.413 224.465 205.093 222.758 203.28C221.105 201.467 218.971 200.56 216.358 200.56H207.478V219.92H216.358ZM245.518 246V190H260.558L275.438 229.76L290.318 190H305.038V246H292.638V209.68L280.238 246H270.638L257.918 209.44V246H245.518ZM316.909 246V190H351.149V200.4H329.869V213.12H351.149V223.28H329.869V235.6H351.149V246H316.909ZM362.362 246V190H375.642L395.082 226.24V190H407.482V246H394.202L374.762 209.76V246H362.362ZM429.698 246V201.52H414.338V190H458.017V201.52H442.578V246H429.698Z" fill="#002886"/>
<path d="M4.356 305L0 292.4H2.178L5.166 301.562L7.992 292.4H9.522L12.348 301.562L15.336 292.4H17.514L13.158 305H11.664L8.766 296.018L5.85 305H4.356ZM20.4503 294.992C20.1743 295.268 19.8263 295.406 19.4062 295.406C18.9863 295.406 18.6383 295.268 18.3623 294.992C18.0863 294.704 17.9483 294.356 17.9483 293.948C17.9483 293.54 18.0863 293.198 18.3623 292.922C18.6383 292.634 18.9863 292.49 19.4062 292.49C19.8263 292.49 20.1743 292.634 20.4503 292.922C20.7263 293.198 20.8643 293.54 20.8643 293.948C20.8643 294.356 20.7263 294.704 20.4503 294.992ZM18.4163 305V296.612H20.3783V305H18.4163ZM26.6967 303.344C27.0927 303.344 27.4227 303.32 27.6867 303.272V305C27.2787 305.072 26.7927 305.108 26.2287 305.108C25.9047 305.108 25.6227 305.084 25.3827 305.036C25.1427 304.988 24.8607 304.88 24.5367 304.712C24.2127 304.532 23.9607 304.226 23.7807 303.794C23.6007 303.362 23.5107 302.816 23.5107 302.156V298.25H22.0887V296.612H23.5107V294.074H25.4727V296.612H27.3987V298.25H25.4727V301.706C25.4727 302.378 25.5687 302.822 25.7607 303.038C25.9527 303.242 26.2647 303.344 26.6967 303.344ZM34.1885 296.396C36.2285 296.396 37.2485 297.506 37.2485 299.726V305H35.2865V300.626C35.2865 299.714 35.1485 299.06 34.8725 298.664C34.5965 298.268 34.1225 298.07 33.4505 298.07C32.8145 298.07 32.3225 298.274 31.9745 298.682C31.6265 299.078 31.4525 299.648 31.4525 300.392V305H29.4905V292.4H31.4525V297.782C31.9925 296.858 32.9045 296.396 34.1885 296.396ZM51.2058 303.974C50.4138 304.802 49.3398 305.216 47.9838 305.216C46.6278 305.216 45.5478 304.802 44.7438 303.974C43.9518 303.134 43.5558 302.078 43.5558 300.806C43.5558 299.534 43.9518 298.484 44.7438 297.656C45.5478 296.816 46.6278 296.396 47.9838 296.396C49.3398 296.396 50.4138 296.816 51.2058 297.656C52.0098 298.484 52.4118 299.534 52.4118 300.806C52.4118 302.078 52.0098 303.134 51.2058 303.974ZM46.1658 302.732C46.6098 303.224 47.2158 303.47 47.9838 303.47C48.7518 303.47 49.3518 303.224 49.7838 302.732C50.2278 302.24 50.4498 301.598 50.4498 300.806C50.4498 300.014 50.2278 299.372 49.7838 298.88C49.3518 298.388 48.7518 298.142 47.9838 298.142C47.2158 298.142 46.6098 298.388 46.1658 298.88C45.7338 299.372 45.5178 300.014 45.5178 300.806C45.5178 301.598 45.7338 302.24 46.1658 302.732ZM57.3172 305.216C56.3692 305.216 55.6132 304.934 55.0492 304.37C54.4852 303.806 54.2032 302.978 54.2032 301.886V296.612H56.1652V301.4C56.1652 302.108 56.2972 302.642 56.5612 303.002C56.8252 303.362 57.2632 303.542 57.8752 303.542C58.5832 303.542 59.0992 303.344 59.4232 302.948C59.7472 302.54 59.9092 302.006 59.9092 301.346V296.612H61.8712V305H59.9092V303.83C59.3932 304.754 58.5292 305.216 57.3172 305.216ZM64.383 305V296.612H66.345V298.232C66.489 297.668 66.771 297.242 67.191 296.954C67.611 296.654 68.073 296.504 68.577 296.504C68.901 296.504 69.159 296.528 69.351 296.576V298.376C69.147 298.352 68.889 298.34 68.577 298.34C67.881 298.34 67.335 298.598 66.939 299.114C66.543 299.618 66.345 300.344 66.345 301.292V305H64.383ZM83.0708 300.374C83.0708 300.59 83.0528 300.95 83.0168 301.454H76.7888C76.8128 302.114 77.0288 302.624 77.4368 302.984C77.8448 303.332 78.4088 303.506 79.1288 303.506C80.0528 303.506 80.6768 303.188 81.0008 302.552H82.9808C82.8488 303.332 82.4228 303.974 81.7028 304.478C80.9948 304.97 80.1368 305.216 79.1288 305.216C77.8088 305.216 76.7648 304.82 75.9968 304.028C75.2288 303.236 74.8448 302.162 74.8448 300.806C74.8448 299.462 75.2228 298.394 75.9788 297.602C76.7468 296.798 77.7728 296.396 79.0568 296.396C80.2568 296.396 81.2228 296.768 81.9548 297.512C82.6988 298.244 83.0708 299.198 83.0708 300.374ZM76.7888 299.96H81.1448C81.1328 299.312 80.9408 298.814 80.5688 298.466C80.2088 298.118 79.6928 297.944 79.0208 297.944C78.3368 297.944 77.7968 298.13 77.4008 298.502C77.0048 298.874 76.8008 299.36 76.7888 299.96ZM91.3168 296.612H93.2788V308.78H91.3168V303.866C91.0768 304.274 90.6988 304.604 90.1828 304.856C89.6788 305.096 89.1628 305.216 88.6348 305.216C87.3268 305.216 86.3128 304.802 85.5928 303.974C84.8728 303.146 84.5128 302.09 84.5128 300.806C84.5128 299.534 84.8908 298.484 85.6468 297.656C86.4028 296.816 87.4168 296.396 88.6888 296.396C89.2528 296.396 89.7688 296.516 90.2368 296.756C90.7048 296.996 91.0648 297.326 91.3168 297.746V296.612ZM88.9228 303.47C89.7268 303.47 90.3388 303.218 90.7588 302.714C91.1908 302.21 91.4068 301.574 91.4068 300.806C91.4068 300.038 91.1908 299.402 90.7588 298.898C90.3388 298.394 89.7268 298.142 88.9228 298.142C88.1668 298.142 87.5668 298.394 87.1228 298.898C86.6908 299.39 86.4748 300.026 86.4748 300.806C86.4748 301.586 86.6908 302.228 87.1228 302.732C87.5668 303.224 88.1668 303.47 88.9228 303.47ZM98.8192 305.216C97.8712 305.216 97.1152 304.934 96.5512 304.37C95.9872 303.806 95.7052 302.978 95.7052 301.886V296.612H97.6672V301.4C97.6672 302.108 97.7992 302.642 98.0632 303.002C98.3272 303.362 98.7652 303.542 99.3772 303.542C100.085 303.542 100.601 303.344 100.925 302.948C101.249 302.54 101.411 302.006 101.411 301.346V296.612H103.373V305H101.411V303.83C100.895 304.754 100.031 305.216 98.8192 305.216ZM107.919 294.992C107.643 295.268 107.295 295.406 106.875 295.406C106.455 295.406 106.107 295.268 105.831 294.992C105.555 294.704 105.417 294.356 105.417 293.948C105.417 293.54 105.555 293.198 105.831 292.922C106.107 292.634 106.455 292.49 106.875 292.49C107.295 292.49 107.643 292.634 107.919 292.922C108.195 293.198 108.333 293.54 108.333 293.948C108.333 294.356 108.195 294.704 107.919 294.992ZM105.885 305V296.612H107.847V305H105.885ZM115.137 296.396C116.337 296.396 117.303 296.804 118.035 297.62C118.767 298.424 119.133 299.486 119.133 300.806C119.133 302.102 118.749 303.164 117.981 303.992C117.213 304.808 116.223 305.216 115.011 305.216C114.459 305.216 113.937 305.096 113.445 304.856C112.953 304.604 112.581 304.274 112.329 303.866V308.78H110.367V296.612H112.329V297.746C112.581 297.338 112.965 297.014 113.481 296.774C113.997 296.522 114.549 296.396 115.137 296.396ZM114.723 303.47C115.443 303.47 116.031 303.224 116.487 302.732C116.943 302.228 117.171 301.586 117.171 300.806C117.171 300.026 116.943 299.39 116.487 298.898C116.031 298.394 115.443 298.142 114.723 298.142C113.979 298.142 113.379 298.388 112.923 298.88C112.467 299.372 112.239 300.014 112.239 300.806C112.239 301.598 112.467 302.24 112.923 302.732C113.379 303.224 113.979 303.47 114.723 303.47ZM121.02 305V296.612H122.982V297.782C123.174 297.374 123.48 297.044 123.9 296.792C124.32 296.528 124.794 296.396 125.322 296.396C126.654 296.396 127.536 296.894 127.968 297.89C128.172 297.458 128.508 297.104 128.976 296.828C129.444 296.54 129.966 296.396 130.542 296.396C132.558 296.396 133.566 297.494 133.566 299.69V305H131.604V300.068C131.604 298.736 131.082 298.07 130.038 298.07C129.486 298.07 129.054 298.256 128.742 298.628C128.43 298.988 128.274 299.63 128.274 300.554V305H126.312V300.05C126.312 298.73 125.802 298.07 124.782 298.07C124.218 298.07 123.774 298.256 123.45 298.628C123.138 298.988 122.982 299.63 122.982 300.554V305H121.02ZM143.592 300.374C143.592 300.59 143.574 300.95 143.538 301.454H137.31C137.334 302.114 137.55 302.624 137.958 302.984C138.366 303.332 138.93 303.506 139.65 303.506C140.574 303.506 141.198 303.188 141.522 302.552H143.502C143.37 303.332 142.944 303.974 142.224 304.478C141.516 304.97 140.658 305.216 139.65 305.216C138.33 305.216 137.286 304.82 136.518 304.028C135.75 303.236 135.366 302.162 135.366 300.806C135.366 299.462 135.744 298.394 136.5 297.602C137.268 296.798 138.294 296.396 139.578 296.396C140.778 296.396 141.744 296.768 142.476 297.512C143.22 298.244 143.592 299.198 143.592 300.374ZM137.31 299.96H141.666C141.654 299.312 141.462 298.814 141.09 298.466C140.73 298.118 140.214 297.944 139.542 297.944C138.858 297.944 138.318 298.13 137.922 298.502C137.526 298.874 137.322 299.36 137.31 299.96ZM145.489 305V296.612H147.451V297.782C147.991 296.858 148.903 296.396 150.187 296.396C152.227 296.396 153.247 297.506 153.247 299.726V305H151.285V300.626C151.285 299.714 151.147 299.06 150.871 298.664C150.595 298.268 150.121 298.07 149.449 298.07C148.813 298.07 148.321 298.274 147.973 298.682C147.625 299.078 147.451 299.648 147.451 300.392V305H145.489ZM159.236 303.344C159.632 303.344 159.962 303.32 160.226 303.272V305C159.818 305.072 159.332 305.108 158.768 305.108C158.444 305.108 158.162 305.084 157.922 305.036C157.682 304.988 157.4 304.88 157.076 304.712C156.752 304.532 156.5 304.226 156.32 303.794C156.14 303.362 156.05 302.816 156.05 302.156V298.25H154.628V296.612H156.05V294.074H158.012V296.612H159.938V298.25H158.012V301.706C158.012 302.378 158.108 302.822 158.3 303.038C158.492 303.242 158.804 303.344 159.236 303.344ZM172.236 296.612H174.198V305.036C174.198 306.32 173.832 307.316 173.1 308.024C172.392 308.672 171.444 308.996 170.256 308.996C169.02 308.996 168.06 308.708 167.376 308.132C166.776 307.604 166.464 306.878 166.44 305.954H168.42C168.468 306.434 168.624 306.788 168.888 307.016C169.164 307.256 169.608 307.376 170.22 307.376C170.844 307.376 171.336 307.172 171.696 306.764C172.056 306.368 172.236 305.744 172.236 304.892V303.83C171.696 304.754 170.796 305.216 169.536 305.216C168.54 305.216 167.772 304.898 167.232 304.262C166.704 303.614 166.44 302.768 166.44 301.724V296.612H168.402V301.31C168.402 302.762 169.008 303.488 170.22 303.488C170.88 303.488 171.378 303.254 171.714 302.786C172.062 302.318 172.236 301.706 172.236 300.95V296.612ZM183.745 303.974C182.953 304.802 181.879 305.216 180.523 305.216C179.167 305.216 178.087 304.802 177.283 303.974C176.491 303.134 176.095 302.078 176.095 300.806C176.095 299.534 176.491 298.484 177.283 297.656C178.087 296.816 179.167 296.396 180.523 296.396C181.879 296.396 182.953 296.816 183.745 297.656C184.549 298.484 184.951 299.534 184.951 300.806C184.951 302.078 184.549 303.134 183.745 303.974ZM178.705 302.732C179.149 303.224 179.755 303.47 180.523 303.47C181.291 303.47 181.891 303.224 182.323 302.732C182.767 302.24 182.989 301.598 182.989 300.806C182.989 300.014 182.767 299.372 182.323 298.88C181.891 298.388 181.291 298.142 180.523 298.142C179.755 298.142 179.149 298.388 178.705 298.88C178.273 299.372 178.057 300.014 178.057 300.806C178.057 301.598 178.273 302.24 178.705 302.732ZM189.856 305.216C188.908 305.216 188.152 304.934 187.588 304.37C187.024 303.806 186.742 302.978 186.742 301.886V296.612H188.704V301.4C188.704 302.108 188.836 302.642 189.1 303.002C189.364 303.362 189.802 303.542 190.414 303.542C191.122 303.542 191.638 303.344 191.962 302.948C192.286 302.54 192.448 302.006 192.448 301.346V296.612H194.41V305H192.448V303.83C191.932 304.754 191.068 305.216 189.856 305.216ZM204.968 305.216C203.684 305.216 202.664 304.814 201.908 304.01C201.164 303.194 200.792 302.126 200.792 300.806C200.792 299.486 201.164 298.424 201.908 297.62C202.664 296.804 203.684 296.396 204.968 296.396C206.12 296.396 207.044 296.69 207.74 297.278C208.448 297.854 208.85 298.628 208.946 299.6H206.984C206.768 298.628 206.096 298.142 204.968 298.142C204.272 298.142 203.726 298.376 203.33 298.844C202.946 299.3 202.754 299.954 202.754 300.806C202.754 301.658 202.946 302.318 203.33 302.786C203.726 303.242 204.272 303.47 204.968 303.47C206.084 303.47 206.756 303.014 206.984 302.102H208.946C208.85 303.05 208.448 303.806 207.74 304.37C207.044 304.934 206.12 305.216 204.968 305.216ZM214.512 305.216C213.204 305.216 212.19 304.802 211.47 303.974C210.75 303.146 210.39 302.09 210.39 300.806C210.39 299.534 210.768 298.484 211.524 297.656C212.28 296.816 213.294 296.396 214.566 296.396C215.13 296.396 215.646 296.516 216.114 296.756C216.582 296.996 216.942 297.326 217.194 297.746V296.612H219.156V305H217.194V303.866C216.954 304.274 216.576 304.604 216.06 304.856C215.556 305.096 215.04 305.216 214.512 305.216ZM214.8 303.47C215.604 303.47 216.216 303.218 216.636 302.714C217.068 302.21 217.284 301.574 217.284 300.806C217.284 300.038 217.068 299.402 216.636 298.898C216.216 298.394 215.604 298.142 214.8 298.142C214.044 298.142 213.444 298.394 213 298.898C212.568 299.39 212.352 300.026 212.352 300.806C212.352 301.586 212.568 302.228 213 302.732C213.444 303.224 214.044 303.47 214.8 303.47ZM221.672 305V296.612H223.634V297.782C224.174 296.858 225.086 296.396 226.37 296.396C228.41 296.396 229.43 297.506 229.43 299.726V305H227.468V300.626C227.468 299.714 227.33 299.06 227.054 298.664C226.778 298.268 226.304 298.07 225.632 298.07C224.996 298.07 224.504 298.274 224.156 298.682C223.808 299.078 223.634 299.648 223.634 300.392V305H221.672ZM236.367 305V296.612H238.329V298.232C238.473 297.668 238.755 297.242 239.175 296.954C239.595 296.654 240.057 296.504 240.561 296.504C240.885 296.504 241.143 296.528 241.335 296.576V298.376C241.131 298.352 240.873 298.34 240.561 298.34C239.865 298.34 239.319 298.598 238.923 299.114C238.527 299.618 238.329 300.344 238.329 301.292V305H236.367ZM250.292 300.374C250.292 300.59 250.274 300.95 250.238 301.454H244.01C244.034 302.114 244.25 302.624 244.658 302.984C245.066 303.332 245.63 303.506 246.35 303.506C247.274 303.506 247.898 303.188 248.222 302.552H250.202C250.07 303.332 249.644 303.974 248.924 304.478C248.216 304.97 247.358 305.216 246.35 305.216C245.03 305.216 243.986 304.82 243.218 304.028C242.45 303.236 242.066 302.162 242.066 300.806C242.066 299.462 242.444 298.394 243.2 297.602C243.968 296.798 244.994 296.396 246.278 296.396C247.478 296.396 248.444 296.768 249.176 297.512C249.92 298.244 250.292 299.198 250.292 300.374ZM244.01 299.96H248.366C248.354 299.312 248.162 298.814 247.79 298.466C247.43 298.118 246.914 297.944 246.242 297.944C245.558 297.944 245.018 298.13 244.622 298.502C244.226 298.874 244.022 299.36 244.01 299.96ZM255.856 305.216C254.548 305.216 253.534 304.802 252.814 303.974C252.094 303.146 251.734 302.09 251.734 300.806C251.734 299.534 252.112 298.484 252.868 297.656C253.624 296.816 254.638 296.396 255.91 296.396C256.474 296.396 256.99 296.516 257.458 296.756C257.926 296.996 258.286 297.326 258.538 297.746V296.612H260.5V305H258.538V303.866C258.298 304.274 257.92 304.604 257.404 304.856C256.9 305.096 256.384 305.216 255.856 305.216ZM256.144 303.47C256.948 303.47 257.56 303.218 257.98 302.714C258.412 302.21 258.628 301.574 258.628 300.806C258.628 300.038 258.412 299.402 257.98 298.898C257.56 298.394 256.948 298.142 256.144 298.142C255.388 298.142 254.788 298.394 254.344 298.898C253.912 299.39 253.696 300.026 253.696 300.806C253.696 301.586 253.912 302.228 254.344 302.732C254.788 303.224 255.388 303.47 256.144 303.47ZM266.562 305.216C265.278 305.216 264.258 304.814 263.502 304.01C262.758 303.194 262.386 302.126 262.386 300.806C262.386 299.486 262.758 298.424 263.502 297.62C264.258 296.804 265.278 296.396 266.562 296.396C267.714 296.396 268.638 296.69 269.334 297.278C270.042 297.854 270.444 298.628 270.54 299.6H268.578C268.362 298.628 267.69 298.142 266.562 298.142C265.866 298.142 265.32 298.376 264.924 298.844C264.54 299.3 264.348 299.954 264.348 300.806C264.348 301.658 264.54 302.318 264.924 302.786C265.32 303.242 265.866 303.47 266.562 303.47C267.678 303.47 268.35 303.014 268.578 302.102H270.54C270.444 303.05 270.042 303.806 269.334 304.37C268.638 304.934 267.714 305.216 266.562 305.216ZM277.136 296.396C279.176 296.396 280.196 297.506 280.196 299.726V305H278.234V300.626C278.234 299.714 278.096 299.06 277.82 298.664C277.544 298.268 277.07 298.07 276.398 298.07C275.762 298.07 275.27 298.274 274.922 298.682C274.574 299.078 274.4 299.648 274.4 300.392V305H272.438V292.4H274.4V297.782C274.94 296.858 275.852 296.396 277.136 296.396ZM289.167 294.992C288.891 295.268 288.543 295.406 288.123 295.406C287.703 295.406 287.355 295.268 287.079 294.992C286.803 294.704 286.665 294.356 286.665 293.948C286.665 293.54 286.803 293.198 287.079 292.922C287.355 292.634 287.703 292.49 288.123 292.49C288.543 292.49 288.891 292.634 289.167 292.922C289.443 293.198 289.581 293.54 289.581 293.948C289.581 294.356 289.443 294.704 289.167 294.992ZM287.133 305V296.612H289.095V305H287.133ZM291.615 305V296.612H293.577V297.782C294.117 296.858 295.029 296.396 296.313 296.396C298.353 296.396 299.373 297.506 299.373 299.726V305H297.411V300.626C297.411 299.714 297.273 299.06 296.997 298.664C296.721 298.268 296.247 298.07 295.575 298.07C294.939 298.07 294.447 298.274 294.099 298.682C293.751 299.078 293.577 299.648 293.577 300.392V305H291.615ZM305.357 305.216C304.073 305.216 303.053 304.814 302.297 304.01C301.553 303.194 301.181 302.126 301.181 300.806C301.181 299.486 301.553 298.424 302.297 297.62C303.053 296.804 304.073 296.396 305.357 296.396C306.509 296.396 307.433 296.69 308.129 297.278C308.837 297.854 309.239 298.628 309.335 299.6H307.373C307.157 298.628 306.485 298.142 305.357 298.142C304.661 298.142 304.115 298.376 303.719 298.844C303.335 299.3 303.143 299.954 303.143 300.806C303.143 301.658 303.335 302.318 303.719 302.786C304.115 303.242 304.661 303.47 305.357 303.47C306.473 303.47 307.145 303.014 307.373 302.102H309.335C309.239 303.05 308.837 303.806 308.129 304.37C307.433 304.934 306.509 305.216 305.357 305.216ZM311.233 305V296.612H313.195V298.232C313.339 297.668 313.621 297.242 314.041 296.954C314.461 296.654 314.923 296.504 315.427 296.504C315.751 296.504 316.009 296.528 316.201 296.576V298.376C315.997 298.352 315.739 298.34 315.427 298.34C314.731 298.34 314.185 298.598 313.789 299.114C313.393 299.618 313.195 300.344 313.195 301.292V305H311.233ZM325.157 300.374C325.157 300.59 325.139 300.95 325.103 301.454H318.875C318.899 302.114 319.115 302.624 319.523 302.984C319.931 303.332 320.495 303.506 321.215 303.506C322.139 303.506 322.763 303.188 323.087 302.552H325.067C324.935 303.332 324.509 303.974 323.789 304.478C323.081 304.97 322.223 305.216 321.215 305.216C319.895 305.216 318.851 304.82 318.083 304.028C317.315 303.236 316.931 302.162 316.931 300.806C316.931 299.462 317.309 298.394 318.065 297.602C318.833 296.798 319.859 296.396 321.143 296.396C322.343 296.396 323.309 296.768 324.041 297.512C324.785 298.244 325.157 299.198 325.157 300.374ZM318.875 299.96H323.231C323.219 299.312 323.027 298.814 322.655 298.466C322.295 298.118 321.779 297.944 321.107 297.944C320.423 297.944 319.883 298.13 319.487 298.502C319.091 298.874 318.887 299.36 318.875 299.96ZM333.403 292.4H335.365V305H333.403V303.866C333.163 304.274 332.785 304.604 332.269 304.856C331.765 305.096 331.249 305.216 330.721 305.216C329.413 305.216 328.399 304.802 327.679 303.974C326.959 303.146 326.599 302.09 326.599 300.806C326.599 299.534 326.977 298.484 327.733 297.656C328.489 296.816 329.503 296.396 330.775 296.396C331.339 296.396 331.855 296.516 332.323 296.756C332.791 296.996 333.151 297.326 333.403 297.746V292.4ZM331.009 303.47C331.813 303.47 332.425 303.218 332.845 302.714C333.277 302.21 333.493 301.574 333.493 300.806C333.493 300.038 333.277 299.402 332.845 298.898C332.425 298.394 331.813 298.142 331.009 298.142C330.253 298.142 329.653 298.394 329.209 298.898C328.777 299.39 328.561 300.026 328.561 300.806C328.561 301.586 328.777 302.228 329.209 302.732C329.653 303.224 330.253 303.47 331.009 303.47ZM339.915 294.992C339.639 295.268 339.291 295.406 338.871 295.406C338.451 295.406 338.103 295.268 337.827 294.992C337.551 294.704 337.413 294.356 337.413 293.948C337.413 293.54 337.551 293.198 337.827 292.922C338.103 292.634 338.451 292.49 338.871 292.49C339.291 292.49 339.639 292.634 339.915 292.922C340.191 293.198 340.329 293.54 340.329 293.948C340.329 294.356 340.191 294.704 339.915 294.992ZM337.881 305V296.612H339.843V305H337.881ZM347.134 296.396C348.334 296.396 349.3 296.804 350.032 297.62C350.764 298.424 351.13 299.486 351.13 300.806C351.13 302.102 350.746 303.164 349.978 303.992C349.21 304.808 348.22 305.216 347.008 305.216C346.456 305.216 345.934 305.096 345.442 304.856C344.95 304.604 344.578 304.274 344.326 303.866V305H342.364V292.4H344.326V297.746C344.578 297.338 344.962 297.014 345.478 296.774C345.994 296.522 346.546 296.396 347.134 296.396ZM346.72 303.47C347.44 303.47 348.028 303.224 348.484 302.732C348.94 302.228 349.168 301.586 349.168 300.806C349.168 300.026 348.94 299.39 348.484 298.898C348.028 298.394 347.44 298.142 346.72 298.142C345.976 298.142 345.376 298.388 344.92 298.88C344.464 299.372 344.236 300.014 344.236 300.806C344.236 301.598 344.464 302.24 344.92 302.732C345.376 303.224 345.976 303.47 346.72 303.47ZM353.016 305V292.4H354.978V305H353.016ZM365.094 300.374C365.094 300.59 365.076 300.95 365.04 301.454H358.812C358.836 302.114 359.052 302.624 359.46 302.984C359.868 303.332 360.432 303.506 361.152 303.506C362.076 303.506 362.7 303.188 363.024 302.552H365.004C364.872 303.332 364.446 303.974 363.726 304.478C363.018 304.97 362.16 305.216 361.152 305.216C359.832 305.216 358.788 304.82 358.02 304.028C357.252 303.236 356.868 302.162 356.868 300.806C356.868 299.462 357.246 298.394 358.002 297.602C358.77 296.798 359.796 296.396 361.08 296.396C362.28 296.396 363.246 296.768 363.978 297.512C364.722 298.244 365.094 299.198 365.094 300.374ZM358.812 299.96H363.168C363.156 299.312 362.964 298.814 362.592 298.466C362.232 298.118 361.716 297.944 361.044 297.944C360.36 297.944 359.82 298.13 359.424 298.502C359.028 298.874 358.824 299.36 358.812 299.96ZM376.188 296.396C378.228 296.396 379.248 297.506 379.248 299.726V305H377.286V300.626C377.286 299.714 377.148 299.06 376.872 298.664C376.596 298.268 376.122 298.07 375.45 298.07C374.814 298.07 374.322 298.274 373.974 298.682C373.626 299.078 373.452 299.648 373.452 300.392V305H371.49V292.4H373.452V297.782C373.992 296.858 374.904 296.396 376.188 296.396ZM389.282 300.374C389.282 300.59 389.264 300.95 389.228 301.454H383C383.024 302.114 383.24 302.624 383.648 302.984C384.056 303.332 384.62 303.506 385.34 303.506C386.264 303.506 386.888 303.188 387.212 302.552H389.192C389.06 303.332 388.634 303.974 387.914 304.478C387.206 304.97 386.348 305.216 385.34 305.216C384.02 305.216 382.976 304.82 382.208 304.028C381.44 303.236 381.056 302.162 381.056 300.806C381.056 299.462 381.434 298.394 382.19 297.602C382.958 296.798 383.984 296.396 385.268 296.396C386.468 296.396 387.434 296.768 388.166 297.512C388.91 298.244 389.282 299.198 389.282 300.374ZM383 299.96H387.356C387.344 299.312 387.152 298.814 386.78 298.466C386.42 298.118 385.904 297.944 385.232 297.944C384.548 297.944 384.008 298.13 383.612 298.502C383.216 298.874 383.012 299.36 383 299.96ZM393.212 294.992C392.936 295.268 392.588 295.406 392.168 295.406C391.748 295.406 391.4 295.268 391.124 294.992C390.848 294.704 390.71 294.356 390.71 293.948C390.71 293.54 390.848 293.198 391.124 292.922C391.4 292.634 391.748 292.49 392.168 292.49C392.588 292.49 392.936 292.634 393.212 292.922C393.488 293.198 393.626 293.54 393.626 293.948C393.626 294.356 393.488 294.704 393.212 294.992ZM391.178 305V296.612H393.14V305H391.178ZM401.834 296.612H403.796V304.64C403.796 306.32 403.292 307.526 402.284 308.258C401.624 308.75 400.664 308.996 399.404 308.996C398.18 308.996 397.196 308.744 396.452 308.24C395.6 307.664 395.156 306.902 395.12 305.954H397.172C397.352 306.902 398.09 307.376 399.386 307.376C400.214 307.376 400.826 307.172 401.222 306.764C401.63 306.368 401.834 305.708 401.834 304.784V303.866C401.594 304.274 401.216 304.604 400.7 304.856C400.196 305.096 399.68 305.216 399.152 305.216C397.88 305.216 396.872 304.802 396.128 303.974C395.396 303.134 395.03 302.078 395.03 300.806C395.03 299.546 395.414 298.496 396.182 297.656C396.962 296.816 397.97 296.396 399.206 296.396C399.77 296.396 400.286 296.516 400.754 296.756C401.222 296.996 401.582 297.326 401.834 297.746V296.612ZM399.44 303.47C400.208 303.47 400.814 303.218 401.258 302.714C401.702 302.198 401.924 301.562 401.924 300.806C401.924 300.05 401.702 299.42 401.258 298.916C400.814 298.4 400.208 298.142 399.44 298.142C398.708 298.142 398.114 298.394 397.658 298.898C397.214 299.39 396.992 300.026 396.992 300.806C396.992 301.586 397.214 302.228 397.658 302.732C398.114 303.224 398.708 303.47 399.44 303.47ZM411.011 296.396C413.051 296.396 414.071 297.506 414.071 299.726V305H412.109V300.626C412.109 299.714 411.971 299.06 411.695 298.664C411.419 298.268 410.945 298.07 410.273 298.07C409.637 298.07 409.145 298.274 408.797 298.682C408.449 299.078 408.275 299.648 408.275 300.392V305H406.313V292.4H408.275V297.782C408.815 296.858 409.727 296.396 411.011 296.396ZM420.06 303.344C420.456 303.344 420.786 303.32 421.05 303.272V305C420.642 305.072 420.156 305.108 419.592 305.108C419.268 305.108 418.986 305.084 418.746 305.036C418.506 304.988 418.224 304.88 417.9 304.712C417.576 304.532 417.324 304.226 417.144 303.794C416.964 303.362 416.874 302.816 416.874 302.156V298.25H415.452V296.612H416.874V294.074H418.836V296.612H420.762V298.25H418.836V301.706C418.836 302.378 418.932 302.822 419.124 303.038C419.316 303.242 419.628 303.344 420.06 303.344ZM425.7 305.216C424.644 305.216 423.786 304.946 423.126 304.406C422.466 303.866 422.136 303.206 422.136 302.426H424.098C424.098 302.786 424.254 303.08 424.566 303.308C424.89 303.536 425.304 303.65 425.808 303.65C426.18 303.65 426.474 303.56 426.69 303.38C426.906 303.2 427.014 302.96 427.014 302.66C427.014 302.18 426.804 301.886 426.384 301.778L424.224 301.184C423.012 300.848 422.406 300.074 422.406 298.862C422.406 298.166 422.706 297.584 423.306 297.116C423.906 296.636 424.68 296.396 425.628 296.396C426.696 296.396 427.512 296.636 428.076 297.116C428.652 297.596 428.94 298.226 428.94 299.006H427.014C427.014 298.658 426.882 298.388 426.618 298.196C426.366 297.992 426.012 297.89 425.556 297.89C425.208 297.89 424.92 297.974 424.692 298.142C424.464 298.298 424.35 298.502 424.35 298.754C424.35 299.21 424.59 299.51 425.07 299.654L427.068 300.23C427.644 300.398 428.112 300.686 428.472 301.094C428.832 301.49 429.012 301.952 429.012 302.48C429.012 303.296 428.718 303.956 428.13 304.46C427.554 304.964 426.744 305.216 425.7 305.216ZM433.053 304.694C432.753 304.994 432.393 305.144 431.973 305.144C431.553 305.144 431.193 304.994 430.893 304.694C430.605 304.394 430.461 304.034 430.461 303.614C430.461 303.194 430.605 302.84 430.893 302.552C431.193 302.252 431.553 302.102 431.973 302.102C432.393 302.102 432.753 302.252 433.053 302.552C433.353 302.84 433.503 303.194 433.503 303.614C433.503 304.034 433.353 304.394 433.053 304.694ZM440.434 305V292.4H447.706V294.254H442.504V297.818H447.706V299.672H442.504V303.146H447.706V305H440.434ZM452.511 305L448.875 296.612H450.981L453.303 302.372L455.625 296.612H457.731L454.095 305H452.511ZM466.204 300.374C466.204 300.59 466.186 300.95 466.15 301.454H459.922C459.946 302.114 460.162 302.624 460.57 302.984C460.978 303.332 461.542 303.506 462.262 303.506C463.186 303.506 463.81 303.188 464.134 302.552H466.114C465.982 303.332 465.556 303.974 464.836 304.478C464.128 304.97 463.27 305.216 462.262 305.216C460.942 305.216 459.898 304.82 459.13 304.028C458.362 303.236 457.978 302.162 457.978 300.806C457.978 299.462 458.356 298.394 459.112 297.602C459.88 296.798 460.906 296.396 462.19 296.396C463.39 296.396 464.356 296.768 465.088 297.512C465.832 298.244 466.204 299.198 466.204 300.374ZM459.922 299.96H464.278C464.266 299.312 464.074 298.814 463.702 298.466C463.342 298.118 462.826 297.944 462.154 297.944C461.47 297.944 460.93 298.13 460.534 298.502C460.138 298.874 459.934 299.36 459.922 299.96ZM468.1 305V296.612H470.062V298.232C470.206 297.668 470.488 297.242 470.908 296.954C471.328 296.654 471.79 296.504 472.294 296.504C472.618 296.504 472.876 296.528 473.068 296.576V298.376C472.864 298.352 472.606 298.34 472.294 298.34C471.598 298.34 471.052 298.598 470.656 299.114C470.26 299.618 470.062 300.344 470.062 301.292V305H468.1ZM480.398 296.612H482.36V305.036C482.36 306.32 481.994 307.316 481.262 308.024C480.554 308.672 479.606 308.996 478.418 308.996C477.182 308.996 476.222 308.708 475.538 308.132C474.938 307.604 474.626 306.878 474.602 305.954H476.582C476.63 306.434 476.786 306.788 477.05 307.016C477.326 307.256 477.77 307.376 478.382 307.376C479.006 307.376 479.498 307.172 479.858 306.764C480.218 306.368 480.398 305.744 480.398 304.892V303.83C479.858 304.754 478.958 305.216 477.698 305.216C476.702 305.216 475.934 304.898 475.394 304.262C474.866 303.614 474.602 302.768 474.602 301.724V296.612H476.564V301.31C476.564 302.762 477.17 303.488 478.382 303.488C479.042 303.488 479.54 303.254 479.876 302.786C480.224 302.318 480.398 301.706 480.398 300.95V296.612ZM4.806 332.216C3.522 332.216 2.502 331.814 1.746 331.01C1.002 330.194 0.63 329.126 0.63 327.806C0.63 326.486 1.002 325.424 1.746 324.62C2.502 323.804 3.522 323.396 4.806 323.396C5.958 323.396 6.882 323.69 7.578 324.278C8.286 324.854 8.688 325.628 8.784 326.6H6.822C6.606 325.628 5.934 325.142 4.806 325.142C4.11 325.142 3.564 325.376 3.168 325.844C2.784 326.3 2.592 326.954 2.592 327.806C2.592 328.658 2.784 329.318 3.168 329.786C3.564 330.242 4.11 330.47 4.806 330.47C5.922 330.47 6.594 330.014 6.822 329.102H8.784C8.688 330.05 8.286 330.806 7.578 331.37C6.882 331.934 5.958 332.216 4.806 332.216ZM17.8777 330.974C17.0857 331.802 16.0117 332.216 14.6557 332.216C13.2997 332.216 12.2197 331.802 11.4157 330.974C10.6237 330.134 10.2277 329.078 10.2277 327.806C10.2277 326.534 10.6237 325.484 11.4157 324.656C12.2197 323.816 13.2997 323.396 14.6557 323.396C16.0117 323.396 17.0857 323.816 17.8777 324.656C18.6817 325.484 19.0837 326.534 19.0837 327.806C19.0837 329.078 18.6817 330.134 17.8777 330.974ZM12.8377 329.732C13.2817 330.224 13.8877 330.47 14.6557 330.47C15.4237 330.47 16.0237 330.224 16.4557 329.732C16.8997 329.24 17.1217 328.598 17.1217 327.806C17.1217 327.014 16.8997 326.372 16.4557 325.88C16.0237 325.388 15.4237 325.142 14.6557 325.142C13.8877 325.142 13.2817 325.388 12.8377 325.88C12.4057 326.372 12.1897 327.014 12.1897 327.806C12.1897 328.598 12.4057 329.24 12.8377 329.732ZM20.9651 332V323.612H22.9271V325.232C23.0711 324.668 23.3531 324.242 23.7731 323.954C24.1931 323.654 24.6551 323.504 25.1591 323.504C25.4831 323.504 25.7411 323.528 25.9331 323.576V325.376C25.7291 325.352 25.4711 325.34 25.1591 325.34C24.4631 325.34 23.9171 325.598 23.5211 326.114C23.1251 326.618 22.9271 327.344 22.9271 328.292V332H20.9651ZM27.5569 332V323.612H29.5189V324.782C30.0589 323.858 30.9709 323.396 32.2549 323.396C34.2949 323.396 35.3149 324.506 35.3149 326.726V332H33.3529V327.626C33.3529 326.714 33.2149 326.06 32.9389 325.664C32.6629 325.268 32.1889 325.07 31.5169 325.07C30.8809 325.07 30.3889 325.274 30.0409 325.682C29.6929 326.078 29.5189 326.648 29.5189 327.392V332H27.5569ZM45.3482 327.374C45.3482 327.59 45.3302 327.95 45.2942 328.454H39.0662C39.0902 329.114 39.3062 329.624 39.7142 329.984C40.1222 330.332 40.6862 330.506 41.4062 330.506C42.3302 330.506 42.9542 330.188 43.2782 329.552H45.2582C45.1262 330.332 44.7002 330.974 43.9802 331.478C43.2722 331.97 42.4142 332.216 41.4062 332.216C40.0862 332.216 39.0422 331.82 38.2742 331.028C37.5062 330.236 37.1222 329.162 37.1222 327.806C37.1222 326.462 37.5002 325.394 38.2562 324.602C39.0242 323.798 40.0502 323.396 41.3342 323.396C42.5342 323.396 43.5002 323.768 44.2322 324.512C44.9762 325.244 45.3482 326.198 45.3482 327.374ZM39.0662 326.96H43.4222C43.4102 326.312 43.2182 325.814 42.8462 325.466C42.4862 325.118 41.9702 324.944 41.2982 324.944C40.6142 324.944 40.0742 325.13 39.6782 325.502C39.2822 325.874 39.0782 326.36 39.0662 326.96ZM47.2444 332V323.612H49.2064V325.232C49.3504 324.668 49.6324 324.242 50.0524 323.954C50.4724 323.654 50.9344 323.504 51.4384 323.504C51.7624 323.504 52.0204 323.528 52.2124 323.576V325.376C52.0084 325.352 51.7504 325.34 51.4384 325.34C50.7424 325.34 50.1964 325.598 49.8004 326.114C49.4044 326.618 49.2064 327.344 49.2064 328.292V332H47.2444ZM65.3562 330.974C64.5642 331.802 63.4902 332.216 62.1342 332.216C60.7782 332.216 59.6982 331.802 58.8942 330.974C58.1022 330.134 57.7062 329.078 57.7062 327.806C57.7062 326.534 58.1022 325.484 58.8942 324.656C59.6982 323.816 60.7782 323.396 62.1342 323.396C63.4902 323.396 64.5642 323.816 65.3562 324.656C66.1602 325.484 66.5622 326.534 66.5622 327.806C66.5622 329.078 66.1602 330.134 65.3562 330.974ZM60.3162 329.732C60.7602 330.224 61.3662 330.47 62.1342 330.47C62.9022 330.47 63.5022 330.224 63.9342 329.732C64.3782 329.24 64.6002 328.598 64.6002 327.806C64.6002 327.014 64.3782 326.372 63.9342 325.88C63.5022 325.388 62.9022 325.142 62.1342 325.142C61.3662 325.142 60.7602 325.388 60.3162 325.88C59.8842 326.372 59.6682 327.014 59.6682 327.806C59.6682 328.598 59.8842 329.24 60.3162 329.732ZM72.4618 321.038C72.2818 321.038 72.1198 321.05 71.9758 321.074C71.8438 321.098 71.6938 321.152 71.5258 321.236C71.3698 321.308 71.2498 321.44 71.1658 321.632C71.0818 321.824 71.0398 322.064 71.0398 322.352V323.612H73.2358V325.25H71.0398V332H69.0778V325.25H67.3678V323.612H69.0778V322.388C69.0778 321.752 69.1798 321.218 69.3838 320.786C69.5878 320.342 69.8518 320.024 70.1758 319.832C70.5118 319.628 70.8178 319.49 71.0938 319.418C71.3698 319.334 71.6458 319.292 71.9218 319.292C72.4738 319.292 72.9118 319.346 73.2358 319.454V321.11C73.1758 321.11 73.0558 321.098 72.8758 321.074C72.7078 321.05 72.5698 321.038 72.4618 321.038ZM83.0697 330.344C83.4657 330.344 83.7957 330.32 84.0597 330.272V332C83.6517 332.072 83.1657 332.108 82.6017 332.108C82.2777 332.108 81.9957 332.084 81.7557 332.036C81.5157 331.988 81.2337 331.88 80.9097 331.712C80.5857 331.532 80.3337 331.226 80.1537 330.794C79.9737 330.362 79.8837 329.816 79.8837 329.156V325.25H78.4617V323.612H79.8837V321.074H81.8457V323.612H83.7717V325.25H81.8457V328.706C81.8457 329.378 81.9417 329.822 82.1337 330.038C82.3257 330.242 82.6377 330.344 83.0697 330.344ZM90.5615 323.396C92.6015 323.396 93.6215 324.506 93.6215 326.726V332H91.6595V327.626C91.6595 326.714 91.5215 326.06 91.2455 325.664C90.9695 325.268 90.4955 325.07 89.8235 325.07C89.1875 325.07 88.6955 325.274 88.3475 325.682C87.9995 326.078 87.8255 326.648 87.8255 327.392V332H85.8635V319.4H87.8255V324.782C88.3655 323.858 89.2775 323.396 90.5615 323.396ZM103.655 327.374C103.655 327.59 103.637 327.95 103.601 328.454H97.3728C97.3968 329.114 97.6128 329.624 98.0208 329.984C98.4288 330.332 98.9928 330.506 99.7128 330.506C100.637 330.506 101.261 330.188 101.585 329.552H103.565C103.433 330.332 103.007 330.974 102.287 331.478C101.579 331.97 100.721 332.216 99.7128 332.216C98.3928 332.216 97.3488 331.82 96.5808 331.028C95.8128 330.236 95.4288 329.162 95.4288 327.806C95.4288 326.462 95.8068 325.394 96.5628 324.602C97.3308 323.798 98.3568 323.396 99.6408 323.396C100.841 323.396 101.807 323.768 102.539 324.512C103.283 325.244 103.655 326.198 103.655 327.374ZM97.3728 326.96H101.729C101.717 326.312 101.525 325.814 101.153 325.466C100.793 325.118 100.277 324.944 99.6048 324.944C98.9208 324.944 98.3808 325.13 97.9848 325.502C97.5888 325.874 97.3848 326.36 97.3728 326.96ZM111.977 332L108.881 323.612H111.041L112.787 329.156L114.605 323.612H116.729L118.547 329.156L120.293 323.612H122.453L119.357 332H117.701L115.667 326.024L113.633 332H111.977ZM130.466 330.974C129.674 331.802 128.6 332.216 127.244 332.216C125.888 332.216 124.808 331.802 124.004 330.974C123.212 330.134 122.816 329.078 122.816 327.806C122.816 326.534 123.212 325.484 124.004 324.656C124.808 323.816 125.888 323.396 127.244 323.396C128.6 323.396 129.674 323.816 130.466 324.656C131.27 325.484 131.672 326.534 131.672 327.806C131.672 329.078 131.27 330.134 130.466 330.974ZM125.426 329.732C125.87 330.224 126.476 330.47 127.244 330.47C128.012 330.47 128.612 330.224 129.044 329.732C129.488 329.24 129.71 328.598 129.71 327.806C129.71 327.014 129.488 326.372 129.044 325.88C128.612 325.388 128.012 325.142 127.244 325.142C126.476 325.142 125.87 325.388 125.426 325.88C124.994 326.372 124.778 327.014 124.778 327.806C124.778 328.598 124.994 329.24 125.426 329.732ZM133.553 332V323.612H135.515V325.232C135.659 324.668 135.941 324.242 136.361 323.954C136.781 323.654 137.243 323.504 137.747 323.504C138.071 323.504 138.329 323.528 138.521 323.576V325.376C138.317 325.352 138.059 325.34 137.747 325.34C137.051 325.34 136.505 325.598 136.109 326.114C135.713 326.618 135.515 327.344 135.515 328.292V332H133.553ZM140.145 332V319.4H142.107V332H140.145ZM150.801 319.4H152.763V332H150.801V330.866C150.561 331.274 150.183 331.604 149.667 331.856C149.163 332.096 148.647 332.216 148.119 332.216C146.811 332.216 145.797 331.802 145.077 330.974C144.357 330.146 143.997 329.09 143.997 327.806C143.997 326.534 144.375 325.484 145.131 324.656C145.887 323.816 146.901 323.396 148.173 323.396C148.737 323.396 149.253 323.516 149.721 323.756C150.189 323.996 150.549 324.326 150.801 324.746V319.4ZM148.407 330.47C149.211 330.47 149.823 330.218 150.243 329.714C150.675 329.21 150.891 328.574 150.891 327.806C150.891 327.038 150.675 326.402 150.243 325.898C149.823 325.394 149.211 325.142 148.407 325.142C147.651 325.142 147.051 325.394 146.607 325.898C146.175 326.39 145.959 327.026 145.959 327.806C145.959 328.586 146.175 329.228 146.607 329.732C147.051 330.224 147.651 330.47 148.407 330.47ZM161.814 321.992C161.538 322.268 161.19 322.406 160.77 322.406C160.35 322.406 160.002 322.268 159.726 321.992C159.45 321.704 159.312 321.356 159.312 320.948C159.312 320.54 159.45 320.198 159.726 319.922C160.002 319.634 160.35 319.49 160.77 319.49C161.19 319.49 161.538 319.634 161.814 319.922C162.09 320.198 162.228 320.54 162.228 320.948C162.228 321.356 162.09 321.704 161.814 321.992ZM159.78 332V323.612H161.742V332H159.78ZM167.196 332.216C166.14 332.216 165.282 331.946 164.622 331.406C163.962 330.866 163.632 330.206 163.632 329.426H165.594C165.594 329.786 165.75 330.08 166.062 330.308C166.386 330.536 166.8 330.65 167.304 330.65C167.676 330.65 167.97 330.56 168.186 330.38C168.402 330.2 168.51 329.96 168.51 329.66C168.51 329.18 168.3 328.886 167.88 328.778L165.72 328.184C164.508 327.848 163.902 327.074 163.902 325.862C163.902 325.166 164.202 324.584 164.802 324.116C165.402 323.636 166.176 323.396 167.124 323.396C168.192 323.396 169.008 323.636 169.572 324.116C170.148 324.596 170.436 325.226 170.436 326.006H168.51C168.51 325.658 168.378 325.388 168.114 325.196C167.862 324.992 167.508 324.89 167.052 324.89C166.704 324.89 166.416 324.974 166.188 325.142C165.96 325.298 165.846 325.502 165.846 325.754C165.846 326.21 166.086 326.51 166.566 326.654L168.564 327.23C169.14 327.398 169.608 327.686 169.968 328.094C170.328 328.49 170.508 328.952 170.508 329.48C170.508 330.296 170.214 330.956 169.626 331.46C169.05 331.964 168.24 332.216 167.196 332.216ZM178.915 332L175.819 323.612H177.979L179.725 329.156L181.543 323.612H183.667L185.485 329.156L187.231 323.612H189.391L186.295 332H184.639L182.605 326.024L180.571 332H178.915ZM193.875 332.216C192.567 332.216 191.553 331.802 190.833 330.974C190.113 330.146 189.753 329.09 189.753 327.806C189.753 326.534 190.131 325.484 190.887 324.656C191.643 323.816 192.657 323.396 193.929 323.396C194.493 323.396 195.009 323.516 195.477 323.756C195.945 323.996 196.305 324.326 196.557 324.746V323.612H198.519V332H196.557V330.866C196.317 331.274 195.939 331.604 195.423 331.856C194.919 332.096 194.403 332.216 193.875 332.216ZM194.163 330.47C194.967 330.47 195.579 330.218 195.999 329.714C196.431 329.21 196.647 328.574 196.647 327.806C196.647 327.038 196.431 326.402 195.999 325.898C195.579 325.394 194.967 325.142 194.163 325.142C193.407 325.142 192.807 325.394 192.363 325.898C191.931 326.39 191.715 327.026 191.715 327.806C191.715 328.586 191.931 329.228 192.363 329.732C192.807 330.224 193.407 330.47 194.163 330.47ZM203.069 321.992C202.793 322.268 202.445 322.406 202.025 322.406C201.605 322.406 201.257 322.268 200.981 321.992C200.705 321.704 200.567 321.356 200.567 320.948C200.567 320.54 200.705 320.198 200.981 319.922C201.257 319.634 201.605 319.49 202.025 319.49C202.445 319.49 202.793 319.634 203.069 319.922C203.345 320.198 203.483 320.54 203.483 320.948C203.483 321.356 203.345 321.704 203.069 321.992ZM201.035 332V323.612H202.997V332H201.035ZM209.316 330.344C209.712 330.344 210.042 330.32 210.306 330.272V332C209.898 332.072 209.412 332.108 208.848 332.108C208.524 332.108 208.242 332.084 208.002 332.036C207.762 331.988 207.48 331.88 207.156 331.712C206.832 331.532 206.58 331.226 206.4 330.794C206.22 330.362 206.13 329.816 206.13 329.156V325.25H204.708V323.612H206.13V321.074H208.092V323.612H210.018V325.25H208.092V328.706C208.092 329.378 208.188 329.822 208.38 330.038C208.572 330.242 208.884 330.344 209.316 330.344ZM214.144 321.992C213.868 322.268 213.52 322.406 213.1 322.406C212.68 322.406 212.332 322.268 212.056 321.992C211.78 321.704 211.642 321.356 211.642 320.948C211.642 320.54 211.78 320.198 212.056 319.922C212.332 319.634 212.68 319.49 213.1 319.49C213.52 319.49 213.868 319.634 214.144 319.922C214.42 320.198 214.558 320.54 214.558 320.948C214.558 321.356 214.42 321.704 214.144 321.992ZM212.11 332V323.612H214.072V332H212.11ZM216.592 332V323.612H218.554V324.782C219.094 323.858 220.006 323.396 221.29 323.396C223.33 323.396 224.35 324.506 224.35 326.726V332H222.388V327.626C222.388 326.714 222.25 326.06 221.974 325.664C221.698 325.268 221.224 325.07 220.552 325.07C219.916 325.07 219.424 325.274 219.076 325.682C218.728 326.078 218.554 326.648 218.554 327.392V332H216.592ZM232.961 323.612H234.923V331.64C234.923 333.32 234.419 334.526 233.411 335.258C232.751 335.75 231.791 335.996 230.531 335.996C229.307 335.996 228.323 335.744 227.579 335.24C226.727 334.664 226.283 333.902 226.247 332.954H228.299C228.479 333.902 229.217 334.376 230.513 334.376C231.341 334.376 231.953 334.172 232.349 333.764C232.757 333.368 232.961 332.708 232.961 331.784V330.866C232.721 331.274 232.343 331.604 231.827 331.856C231.323 332.096 230.807 332.216 230.279 332.216C229.007 332.216 227.999 331.802 227.255 330.974C226.523 330.134 226.157 329.078 226.157 327.806C226.157 326.546 226.541 325.496 227.309 324.656C228.089 323.816 229.097 323.396 230.333 323.396C230.897 323.396 231.413 323.516 231.881 323.756C232.349 323.996 232.709 324.326 232.961 324.746V323.612ZM230.567 330.47C231.335 330.47 231.941 330.218 232.385 329.714C232.829 329.198 233.051 328.562 233.051 327.806C233.051 327.05 232.829 326.42 232.385 325.916C231.941 325.4 231.335 325.142 230.567 325.142C229.835 325.142 229.241 325.394 228.785 325.898C228.341 326.39 228.119 327.026 228.119 327.806C228.119 328.586 228.341 329.228 228.785 329.732C229.241 330.224 229.835 330.47 230.567 330.47ZM246.134 321.038C245.954 321.038 245.792 321.05 245.648 321.074C245.516 321.098 245.366 321.152 245.198 321.236C245.042 321.308 244.922 321.44 244.838 321.632C244.754 321.824 244.712 322.064 244.712 322.352V323.612H246.908V325.25H244.712V332H242.75V325.25H241.04V323.612H242.75V322.388C242.75 321.752 242.852 321.218 243.056 320.786C243.26 320.342 243.524 320.024 243.848 319.832C244.184 319.628 244.49 319.49 244.766 319.418C245.042 319.334 245.318 319.292 245.594 319.292C246.146 319.292 246.584 319.346 246.908 319.454V321.11C246.848 321.11 246.728 321.098 246.548 321.074C246.38 321.05 246.242 321.038 246.134 321.038ZM255.288 330.974C254.496 331.802 253.422 332.216 252.066 332.216C250.71 332.216 249.63 331.802 248.826 330.974C248.034 330.134 247.638 329.078 247.638 327.806C247.638 326.534 248.034 325.484 248.826 324.656C249.63 323.816 250.71 323.396 252.066 323.396C253.422 323.396 254.496 323.816 255.288 324.656C256.092 325.484 256.494 326.534 256.494 327.806C256.494 329.078 256.092 330.134 255.288 330.974ZM250.248 329.732C250.692 330.224 251.298 330.47 252.066 330.47C252.834 330.47 253.434 330.224 253.866 329.732C254.31 329.24 254.532 328.598 254.532 327.806C254.532 327.014 254.31 326.372 253.866 325.88C253.434 325.388 252.834 325.142 252.066 325.142C251.298 325.142 250.692 325.388 250.248 325.88C249.816 326.372 249.6 327.014 249.6 327.806C249.6 328.598 249.816 329.24 250.248 329.732ZM258.375 332V323.612H260.337V325.232C260.481 324.668 260.763 324.242 261.183 323.954C261.603 323.654 262.065 323.504 262.569 323.504C262.893 323.504 263.151 323.528 263.343 323.576V325.376C263.139 325.352 262.881 325.34 262.569 325.34C261.873 325.34 261.327 325.598 260.931 326.114C260.535 326.618 260.337 327.344 260.337 328.292V332H258.375ZM275.173 323.612H277.135V332.036C277.135 333.32 276.769 334.316 276.037 335.024C275.329 335.672 274.381 335.996 273.193 335.996C271.957 335.996 270.997 335.708 270.313 335.132C269.713 334.604 269.401 333.878 269.377 332.954H271.357C271.405 333.434 271.561 333.788 271.825 334.016C272.101 334.256 272.545 334.376 273.157 334.376C273.781 334.376 274.273 334.172 274.633 333.764C274.993 333.368 275.173 332.744 275.173 331.892V330.83C274.633 331.754 273.733 332.216 272.473 332.216C271.477 332.216 270.709 331.898 270.169 331.262C269.641 330.614 269.377 329.768 269.377 328.724V323.612H271.339V328.31C271.339 329.762 271.945 330.488 273.157 330.488C273.817 330.488 274.315 330.254 274.651 329.786C274.999 329.318 275.173 328.706 275.173 327.95V323.612ZM286.682 330.974C285.89 331.802 284.816 332.216 283.46 332.216C282.104 332.216 281.024 331.802 280.22 330.974C279.428 330.134 279.032 329.078 279.032 327.806C279.032 326.534 279.428 325.484 280.22 324.656C281.024 323.816 282.104 323.396 283.46 323.396C284.816 323.396 285.89 323.816 286.682 324.656C287.486 325.484 287.888 326.534 287.888 327.806C287.888 329.078 287.486 330.134 286.682 330.974ZM281.642 329.732C282.086 330.224 282.692 330.47 283.46 330.47C284.228 330.47 284.828 330.224 285.26 329.732C285.704 329.24 285.926 328.598 285.926 327.806C285.926 327.014 285.704 326.372 285.26 325.88C284.828 325.388 284.228 325.142 283.46 325.142C282.692 325.142 282.086 325.388 281.642 325.88C281.21 326.372 280.994 327.014 280.994 327.806C280.994 328.598 281.21 329.24 281.642 329.732ZM292.794 332.216C291.846 332.216 291.09 331.934 290.526 331.37C289.962 330.806 289.68 329.978 289.68 328.886V323.612H291.642V328.4C291.642 329.108 291.774 329.642 292.038 330.002C292.302 330.362 292.74 330.542 293.352 330.542C294.06 330.542 294.576 330.344 294.9 329.948C295.224 329.54 295.386 329.006 295.386 328.346V323.612H297.348V332H295.386V330.83C294.87 331.754 294.006 332.216 292.794 332.216ZM302.272 331.694C301.972 331.994 301.612 332.144 301.192 332.144C300.772 332.144 300.412 331.994 300.112 331.694C299.824 331.394 299.68 331.034 299.68 330.614C299.68 330.194 299.824 329.84 300.112 329.552C300.412 329.252 300.772 329.102 301.192 329.102C301.612 329.102 301.972 329.252 302.272 329.552C302.572 329.84 302.722 330.194 302.722 330.614C302.722 331.034 302.572 331.394 302.272 331.694ZM322.937 325.682V327.536H321.551C321.227 329.024 320.531 330.194 319.463 331.046C318.407 331.886 317.057 332.306 315.413 332.306C313.457 332.306 311.885 331.694 310.697 330.47C309.509 329.234 308.921 327.674 308.933 325.79C308.945 323.918 309.533 322.334 310.697 321.038C311.873 319.742 313.505 319.094 315.593 319.094C317.105 319.094 318.365 319.484 319.373 320.264C320.393 321.044 320.957 322.016 321.065 323.18H318.797C318.653 322.52 318.299 321.986 317.735 321.578C317.171 321.158 316.457 320.948 315.593 320.948C314.129 320.948 313.013 321.41 312.245 322.334C311.477 323.246 311.099 324.398 311.111 325.79C311.099 327.122 311.483 328.232 312.263 329.12C313.055 330.008 314.105 330.452 315.413 330.452C317.561 330.452 318.881 329.48 319.373 327.536H316.943V325.682H322.937ZM332.153 327.374C332.153 327.59 332.135 327.95 332.099 328.454H325.871C325.895 329.114 326.111 329.624 326.519 329.984C326.927 330.332 327.491 330.506 328.211 330.506C329.135 330.506 329.759 330.188 330.083 329.552H332.063C331.931 330.332 331.505 330.974 330.785 331.478C330.077 331.97 329.219 332.216 328.211 332.216C326.891 332.216 325.847 331.82 325.079 331.028C324.311 330.236 323.927 329.162 323.927 327.806C323.927 326.462 324.305 325.394 325.061 324.602C325.829 323.798 326.855 323.396 328.139 323.396C329.339 323.396 330.305 323.768 331.037 324.512C331.781 325.244 332.153 326.198 332.153 327.374ZM325.871 326.96H330.227C330.215 326.312 330.023 325.814 329.651 325.466C329.291 325.118 328.775 324.944 328.103 324.944C327.419 324.944 326.879 325.13 326.483 325.502C326.087 325.874 325.883 326.36 325.871 326.96ZM337.759 330.344C338.155 330.344 338.485 330.32 338.749 330.272V332C338.341 332.072 337.855 332.108 337.291 332.108C336.967 332.108 336.685 332.084 336.445 332.036C336.205 331.988 335.923 331.88 335.599 331.712C335.275 331.532 335.023 331.226 334.843 330.794C334.663 330.362 334.573 329.816 334.573 329.156V325.25H333.151V323.612H334.573V321.074H336.535V323.612H338.461V325.25H336.535V328.706C336.535 329.378 336.631 329.822 336.823 330.038C337.015 330.242 337.327 330.344 337.759 330.344ZM352.073 330.974C351.281 331.802 350.207 332.216 348.851 332.216C347.495 332.216 346.415 331.802 345.611 330.974C344.819 330.134 344.423 329.078 344.423 327.806C344.423 326.534 344.819 325.484 345.611 324.656C346.415 323.816 347.495 323.396 348.851 323.396C350.207 323.396 351.281 323.816 352.073 324.656C352.877 325.484 353.279 326.534 353.279 327.806C353.279 329.078 352.877 330.134 352.073 330.974ZM347.033 329.732C347.477 330.224 348.083 330.47 348.851 330.47C349.619 330.47 350.219 330.224 350.651 329.732C351.095 329.24 351.317 328.598 351.317 327.806C351.317 327.014 351.095 326.372 350.651 325.88C350.219 325.388 349.619 325.142 348.851 325.142C348.083 325.142 347.477 325.388 347.033 325.88C346.601 326.372 346.385 327.014 346.385 327.806C346.385 328.598 346.601 329.24 347.033 329.732ZM358.184 332.216C357.236 332.216 356.48 331.934 355.916 331.37C355.352 330.806 355.07 329.978 355.07 328.886V323.612H357.032V328.4C357.032 329.108 357.164 329.642 357.428 330.002C357.692 330.362 358.13 330.542 358.742 330.542C359.45 330.542 359.966 330.344 360.29 329.948C360.614 329.54 360.776 329.006 360.776 328.346V323.612H362.738V332H360.776V330.83C360.26 331.754 359.396 332.216 358.184 332.216ZM365.25 332V323.612H367.212V325.232C367.356 324.668 367.638 324.242 368.058 323.954C368.478 323.654 368.94 323.504 369.444 323.504C369.768 323.504 370.026 323.528 370.218 323.576V325.376C370.014 325.352 369.756 325.34 369.444 325.34C368.748 325.34 368.202 325.598 367.806 326.114C367.41 326.618 367.212 327.344 367.212 328.292V332H365.25ZM379.276 332.216C378.22 332.216 377.362 331.946 376.702 331.406C376.042 330.866 375.712 330.206 375.712 329.426H377.674C377.674 329.786 377.83 330.08 378.142 330.308C378.466 330.536 378.88 330.65 379.384 330.65C379.756 330.65 380.05 330.56 380.266 330.38C380.482 330.2 380.59 329.96 380.59 329.66C380.59 329.18 380.38 328.886 379.96 328.778L377.8 328.184C376.588 327.848 375.982 327.074 375.982 325.862C375.982 325.166 376.282 324.584 376.882 324.116C377.482 323.636 378.256 323.396 379.204 323.396C380.272 323.396 381.088 323.636 381.652 324.116C382.228 324.596 382.516 325.226 382.516 326.006H380.59C380.59 325.658 380.458 325.388 380.194 325.196C379.942 324.992 379.588 324.89 379.132 324.89C378.784 324.89 378.496 324.974 378.268 325.142C378.04 325.298 377.926 325.502 377.926 325.754C377.926 326.21 378.166 326.51 378.646 326.654L380.644 327.23C381.22 327.398 381.688 327.686 382.048 328.094C382.408 328.49 382.588 328.952 382.588 329.48C382.588 330.296 382.294 330.956 381.706 331.46C381.13 331.964 380.32 332.216 379.276 332.216ZM388.191 330.344C388.587 330.344 388.917 330.32 389.181 330.272V332C388.773 332.072 388.287 332.108 387.723 332.108C387.399 332.108 387.117 332.084 386.877 332.036C386.637 331.988 386.355 331.88 386.031 331.712C385.707 331.532 385.455 331.226 385.275 330.794C385.095 330.362 385.005 329.816 385.005 329.156V325.25H383.583V323.612H385.005V321.074H386.967V323.612H388.893V325.25H386.967V328.706C386.967 329.378 387.063 329.822 387.255 330.038C387.447 330.242 387.759 330.344 388.191 330.344ZM394.009 332.216C393.061 332.216 392.305 331.934 391.741 331.37C391.177 330.806 390.895 329.978 390.895 328.886V323.612H392.857V328.4C392.857 329.108 392.989 329.642 393.253 330.002C393.517 330.362 393.955 330.542 394.567 330.542C395.275 330.542 395.791 330.344 396.115 329.948C396.439 329.54 396.601 329.006 396.601 328.346V323.612H398.563V332H396.601V330.83C396.085 331.754 395.221 332.216 394.009 332.216ZM401.884 322.388C401.884 321.752 401.986 321.218 402.19 320.786C402.394 320.342 402.658 320.024 402.982 319.832C403.318 319.628 403.624 319.49 403.9 319.418C404.176 319.334 404.452 319.292 404.728 319.292C405.28 319.292 405.718 319.346 406.042 319.454V321.11C405.982 321.11 405.862 321.098 405.682 321.074C405.514 321.05 405.376 321.038 405.268 321.038C405.088 321.038 404.926 321.05 404.782 321.074C404.65 321.098 404.5 321.152 404.332 321.236C404.176 321.308 404.056 321.44 403.972 321.632C403.888 321.824 403.846 322.064 403.846 322.352V323.612H406.042V325.25H403.846V332H401.884V325.25H400.174V323.612H401.884V322.388ZM412.126 321.038C411.946 321.038 411.784 321.05 411.64 321.074C411.508 321.098 411.358 321.152 411.19 321.236C411.034 321.308 410.914 321.44 410.83 321.632C410.746 321.824 410.704 322.064 410.704 322.352V323.612H412.9V325.25H410.704V332H408.742V325.25H407.032V323.612H408.742V322.388C408.742 321.752 408.844 321.218 409.048 320.786C409.252 320.342 409.516 320.024 409.84 319.832C410.176 319.628 410.482 319.49 410.758 319.418C411.034 319.334 411.31 319.292 411.586 319.292C412.138 319.292 412.576 319.346 412.9 319.454V321.11C412.84 321.11 412.72 321.098 412.54 321.074C412.372 321.05 412.234 321.038 412.126 321.038ZM422.426 332.216C421.118 332.216 420.104 331.802 419.384 330.974C418.664 330.146 418.304 329.09 418.304 327.806C418.304 326.534 418.682 325.484 419.438 324.656C420.194 323.816 421.208 323.396 422.48 323.396C423.044 323.396 423.56 323.516 424.028 323.756C424.496 323.996 424.856 324.326 425.108 324.746V323.612H427.07V332H425.108V330.866C424.868 331.274 424.49 331.604 423.974 331.856C423.47 332.096 422.954 332.216 422.426 332.216ZM422.714 330.47C423.518 330.47 424.13 330.218 424.55 329.714C424.982 329.21 425.198 328.574 425.198 327.806C425.198 327.038 424.982 326.402 424.55 325.898C424.13 325.394 423.518 325.142 422.714 325.142C421.958 325.142 421.358 325.394 420.914 325.898C420.482 326.39 420.266 327.026 420.266 327.806C420.266 328.586 420.482 329.228 420.914 329.732C421.358 330.224 421.958 330.47 422.714 330.47ZM429.586 332V323.612H431.548V324.782C432.088 323.858 433 323.396 434.284 323.396C436.324 323.396 437.344 324.506 437.344 326.726V332H435.382V327.626C435.382 326.714 435.244 326.06 434.968 325.664C434.692 325.268 434.218 325.07 433.546 325.07C432.91 325.07 432.418 325.274 432.07 325.682C431.722 326.078 431.548 326.648 431.548 327.392V332H429.586ZM445.955 319.4H447.917V332H445.955V330.866C445.715 331.274 445.337 331.604 444.821 331.856C444.317 332.096 443.801 332.216 443.273 332.216C441.965 332.216 440.951 331.802 440.231 330.974C439.511 330.146 439.151 329.09 439.151 327.806C439.151 326.534 439.529 325.484 440.285 324.656C441.041 323.816 442.055 323.396 443.327 323.396C443.891 323.396 444.407 323.516 444.875 323.756C445.343 323.996 445.703 324.326 445.955 324.746V319.4ZM443.561 330.47C444.365 330.47 444.977 330.218 445.397 329.714C445.829 329.21 446.045 328.574 446.045 327.806C446.045 327.038 445.829 326.402 445.397 325.898C444.977 325.394 444.365 325.142 443.561 325.142C442.805 325.142 442.205 325.394 441.761 325.898C441.329 326.39 441.113 327.026 441.113 327.806C441.113 328.586 441.329 329.228 441.761 329.732C442.205 330.224 442.805 330.47 443.561 330.47ZM4.806 359.216C3.522 359.216 2.502 358.814 1.746 358.01C1.002 357.194 0.63 356.126 0.63 354.806C0.63 353.486 1.002 352.424 1.746 351.62C2.502 350.804 3.522 350.396 4.806 350.396C5.958 350.396 6.882 350.69 7.578 351.278C8.286 351.854 8.688 352.628 8.784 353.6H6.822C6.606 352.628 5.934 352.142 4.806 352.142C4.11 352.142 3.564 352.376 3.168 352.844C2.784 353.3 2.592 353.954 2.592 354.806C2.592 355.658 2.784 356.318 3.168 356.786C3.564 357.242 4.11 357.47 4.806 357.47C5.922 357.47 6.594 357.014 6.822 356.102H8.784C8.688 357.05 8.286 357.806 7.578 358.37C6.882 358.934 5.958 359.216 4.806 359.216ZM17.8777 357.974C17.0857 358.802 16.0117 359.216 14.6557 359.216C13.2997 359.216 12.2197 358.802 11.4157 357.974C10.6237 357.134 10.2277 356.078 10.2277 354.806C10.2277 353.534 10.6237 352.484 11.4157 351.656C12.2197 350.816 13.2997 350.396 14.6557 350.396C16.0117 350.396 17.0857 350.816 17.8777 351.656C18.6817 352.484 19.0837 353.534 19.0837 354.806C19.0837 356.078 18.6817 357.134 17.8777 357.974ZM12.8377 356.732C13.2817 357.224 13.8877 357.47 14.6557 357.47C15.4237 357.47 16.0237 357.224 16.4557 356.732C16.8997 356.24 17.1217 355.598 17.1217 354.806C17.1217 354.014 16.8997 353.372 16.4557 352.88C16.0237 352.388 15.4237 352.142 14.6557 352.142C13.8877 352.142 13.2817 352.388 12.8377 352.88C12.4057 353.372 12.1897 354.014 12.1897 354.806C12.1897 355.598 12.4057 356.24 12.8377 356.732ZM20.9651 359V350.612H22.9271V351.782C23.4671 350.858 24.3791 350.396 25.6631 350.396C27.7031 350.396 28.7231 351.506 28.7231 353.726V359H26.7611V354.626C26.7611 353.714 26.6231 353.06 26.3471 352.664C26.0711 352.268 25.5971 352.07 24.9251 352.07C24.2891 352.07 23.7971 352.274 23.4491 352.682C23.1011 353.078 22.9271 353.648 22.9271 354.392V359H20.9651ZM37.3344 350.612H39.2964V362.78H37.3344V357.866C37.0944 358.274 36.7164 358.604 36.2004 358.856C35.6964 359.096 35.1804 359.216 34.6524 359.216C33.3444 359.216 32.3304 358.802 31.6104 357.974C30.8904 357.146 30.5304 356.09 30.5304 354.806C30.5304 353.534 30.9084 352.484 31.6644 351.656C32.4204 350.816 33.4344 350.396 34.7064 350.396C35.2704 350.396 35.7864 350.516 36.2544 350.756C36.7224 350.996 37.0824 351.326 37.3344 351.746V350.612ZM34.9404 357.47C35.7444 357.47 36.3564 357.218 36.7764 356.714C37.2084 356.21 37.4244 355.574 37.4244 354.806C37.4244 354.038 37.2084 353.402 36.7764 352.898C36.3564 352.394 35.7444 352.142 34.9404 352.142C34.1844 352.142 33.5844 352.394 33.1404 352.898C32.7084 353.39 32.4924 354.026 32.4924 354.806C32.4924 355.586 32.7084 356.228 33.1404 356.732C33.5844 357.224 34.1844 357.47 34.9404 357.47ZM44.8367 359.216C43.8887 359.216 43.1327 358.934 42.5687 358.37C42.0047 357.806 41.7227 356.978 41.7227 355.886V350.612H43.6847V355.4C43.6847 356.108 43.8167 356.642 44.0807 357.002C44.3447 357.362 44.7827 357.542 45.3947 357.542C46.1027 357.542 46.6187 357.344 46.9427 356.948C47.2667 356.54 47.4287 356.006 47.4287 355.346V350.612H49.3907V359H47.4287V357.83C46.9127 358.754 46.0487 359.216 44.8367 359.216ZM59.4986 354.374C59.4986 354.59 59.4806 354.95 59.4446 355.454H53.2166C53.2406 356.114 53.4566 356.624 53.8646 356.984C54.2726 357.332 54.8366 357.506 55.5566 357.506C56.4806 357.506 57.1046 357.188 57.4286 356.552H59.4086C59.2766 357.332 58.8506 357.974 58.1306 358.478C57.4226 358.97 56.5646 359.216 55.5566 359.216C54.2366 359.216 53.1926 358.82 52.4246 358.028C51.6566 357.236 51.2726 356.162 51.2726 354.806C51.2726 353.462 51.6506 352.394 52.4066 351.602C53.1746 350.798 54.2006 350.396 55.4846 350.396C56.6846 350.396 57.6506 350.768 58.3826 351.512C59.1266 352.244 59.4986 353.198 59.4986 354.374ZM53.2166 353.96H57.5726C57.5606 353.312 57.3686 352.814 56.9966 352.466C56.6366 352.118 56.1206 351.944 55.4486 351.944C54.7646 351.944 54.2246 352.13 53.8286 352.502C53.4326 352.874 53.2286 353.36 53.2166 353.96ZM61.3948 359V350.612H63.3568V352.232C63.5008 351.668 63.7828 351.242 64.2028 350.954C64.6228 350.654 65.0848 350.504 65.5888 350.504C65.9128 350.504 66.1708 350.528 66.3628 350.576V352.376C66.1588 352.352 65.9008 352.34 65.5888 352.34C64.8928 352.34 64.3468 352.598 63.9508 353.114C63.5548 353.618 63.3568 354.344 63.3568 355.292V359H61.3948ZM75.9786 359.216C74.6706 359.216 73.6566 358.802 72.9366 357.974C72.2166 357.146 71.8566 356.09 71.8566 354.806C71.8566 353.534 72.2346 352.484 72.9906 351.656C73.7466 350.816 74.7606 350.396 76.0326 350.396C76.5966 350.396 77.1126 350.516 77.5806 350.756C78.0486 350.996 78.4086 351.326 78.6606 351.746V350.612H80.6226V359H78.6606V357.866C78.4206 358.274 78.0426 358.604 77.5266 358.856C77.0226 359.096 76.5066 359.216 75.9786 359.216ZM76.2666 357.47C77.0706 357.47 77.6826 357.218 78.1026 356.714C78.5346 356.21 78.7506 355.574 78.7506 354.806C78.7506 354.038 78.5346 353.402 78.1026 352.898C77.6826 352.394 77.0706 352.142 76.2666 352.142C75.5106 352.142 74.9106 352.394 74.4666 352.898C74.0346 353.39 73.8186 354.026 73.8186 354.806C73.8186 355.586 74.0346 356.228 74.4666 356.732C74.9106 357.224 75.5106 357.47 76.2666 357.47ZM83.1389 359V350.612H85.1009V351.782C85.6409 350.858 86.5529 350.396 87.8369 350.396C89.8769 350.396 90.8969 351.506 90.8969 353.726V359H88.9349V354.626C88.9349 353.714 88.7969 353.06 88.5209 352.664C88.2449 352.268 87.7709 352.07 87.0989 352.07C86.4629 352.07 85.9709 352.274 85.6229 352.682C85.2749 353.078 85.1009 353.648 85.1009 354.392V359H83.1389ZM99.0402 350.612H101.002V359.036C101.002 360.32 100.636 361.316 99.9042 362.024C99.1962 362.672 98.2482 362.996 97.0602 362.996C95.8242 362.996 94.8642 362.708 94.1802 362.132C93.5802 361.604 93.2682 360.878 93.2442 359.954H95.2242C95.2722 360.434 95.4282 360.788 95.6922 361.016C95.9682 361.256 96.4122 361.376 97.0242 361.376C97.6482 361.376 98.1402 361.172 98.5002 360.764C98.8602 360.368 99.0402 359.744 99.0402 358.892V357.83C98.5002 358.754 97.6002 359.216 96.3402 359.216C95.3442 359.216 94.5762 358.898 94.0362 358.262C93.5082 357.614 93.2442 356.768 93.2442 355.724V350.612H95.2062V355.31C95.2062 356.762 95.8122 357.488 97.0242 357.488C97.6842 357.488 98.1822 357.254 98.5182 356.786C98.8662 356.318 99.0402 355.706 99.0402 354.95V350.612ZM114.204 346.4H116.166V359H114.204V357.866C113.964 358.274 113.586 358.604 113.07 358.856C112.566 359.096 112.05 359.216 111.522 359.216C110.214 359.216 109.2 358.802 108.48 357.974C107.76 357.146 107.4 356.09 107.4 354.806C107.4 353.534 107.778 352.484 108.534 351.656C109.29 350.816 110.304 350.396 111.576 350.396C112.14 350.396 112.656 350.516 113.124 350.756C113.592 350.996 113.952 351.326 114.204 351.746V346.4ZM111.81 357.47C112.614 357.47 113.226 357.218 113.646 356.714C114.078 356.21 114.294 355.574 114.294 354.806C114.294 354.038 114.078 353.402 113.646 352.898C113.226 352.394 112.614 352.142 111.81 352.142C111.054 352.142 110.454 352.394 110.01 352.898C109.578 353.39 109.362 354.026 109.362 354.806C109.362 355.586 109.578 356.228 110.01 356.732C110.454 357.224 111.054 357.47 111.81 357.47ZM126.278 354.374C126.278 354.59 126.26 354.95 126.224 355.454H119.996C120.02 356.114 120.236 356.624 120.644 356.984C121.052 357.332 121.616 357.506 122.336 357.506C123.26 357.506 123.884 357.188 124.208 356.552H126.188C126.056 357.332 125.63 357.974 124.91 358.478C124.202 358.97 123.344 359.216 122.336 359.216C121.016 359.216 119.972 358.82 119.204 358.028C118.436 357.236 118.052 356.162 118.052 354.806C118.052 353.462 118.43 352.394 119.186 351.602C119.954 350.798 120.98 350.396 122.264 350.396C123.464 350.396 124.43 350.768 125.162 351.512C125.906 352.244 126.278 353.198 126.278 354.374ZM119.996 353.96H124.352C124.34 353.312 124.148 352.814 123.776 352.466C123.416 352.118 122.9 351.944 122.228 351.944C121.544 351.944 121.004 352.13 120.608 352.502C120.212 352.874 120.008 353.36 119.996 353.96ZM132.944 350.396C134.144 350.396 135.11 350.804 135.842 351.62C136.574 352.424 136.94 353.486 136.94 354.806C136.94 356.102 136.556 357.164 135.788 357.992C135.02 358.808 134.03 359.216 132.818 359.216C132.266 359.216 131.744 359.096 131.252 358.856C130.76 358.604 130.388 358.274 130.136 357.866V362.78H128.174V350.612H130.136V351.746C130.388 351.338 130.772 351.014 131.288 350.774C131.804 350.522 132.356 350.396 132.944 350.396ZM132.53 357.47C133.25 357.47 133.838 357.224 134.294 356.732C134.75 356.228 134.978 355.586 134.978 354.806C134.978 354.026 134.75 353.39 134.294 352.898C133.838 352.394 133.25 352.142 132.53 352.142C131.786 352.142 131.186 352.388 130.73 352.88C130.274 353.372 130.046 354.014 130.046 354.806C130.046 355.598 130.274 356.24 130.73 356.732C131.186 357.224 131.786 357.47 132.53 357.47ZM142.537 357.344C142.933 357.344 143.263 357.32 143.527 357.272V359C143.119 359.072 142.633 359.108 142.069 359.108C141.745 359.108 141.463 359.084 141.223 359.036C140.983 358.988 140.701 358.88 140.377 358.712C140.053 358.532 139.801 358.226 139.621 357.794C139.441 357.362 139.351 356.816 139.351 356.156V352.25H137.929V350.612H139.351V348.074H141.313V350.612H143.239V352.25H141.313V355.706C141.313 356.378 141.409 356.822 141.601 357.038C141.793 357.242 142.105 357.344 142.537 357.344ZM150.028 350.396C152.068 350.396 153.088 351.506 153.088 353.726V359H151.126V354.626C151.126 353.714 150.988 353.06 150.712 352.664C150.436 352.268 149.962 352.07 149.29 352.07C148.654 352.07 148.162 352.274 147.814 352.682C147.466 353.078 147.292 353.648 147.292 354.392V359H145.33V346.4H147.292V351.782C147.832 350.858 148.744 350.396 150.028 350.396ZM167.046 357.974C166.254 358.802 165.18 359.216 163.824 359.216C162.468 359.216 161.388 358.802 160.584 357.974C159.792 357.134 159.396 356.078 159.396 354.806C159.396 353.534 159.792 352.484 160.584 351.656C161.388 350.816 162.468 350.396 163.824 350.396C165.18 350.396 166.254 350.816 167.046 351.656C167.85 352.484 168.252 353.534 168.252 354.806C168.252 356.078 167.85 357.134 167.046 357.974ZM162.006 356.732C162.45 357.224 163.056 357.47 163.824 357.47C164.592 357.47 165.192 357.224 165.624 356.732C166.068 356.24 166.29 355.598 166.29 354.806C166.29 354.014 166.068 353.372 165.624 352.88C165.192 352.388 164.592 352.142 163.824 352.142C163.056 352.142 162.45 352.388 162.006 352.88C161.574 353.372 161.358 354.014 161.358 354.806C161.358 355.598 161.574 356.24 162.006 356.732ZM170.133 359V350.612H172.095V352.232C172.239 351.668 172.521 351.242 172.941 350.954C173.361 350.654 173.823 350.504 174.327 350.504C174.651 350.504 174.909 350.528 175.101 350.576V352.376C174.897 352.352 174.639 352.34 174.327 352.34C173.631 352.34 173.085 352.598 172.689 353.114C172.293 353.618 172.095 354.344 172.095 355.292V359H170.133ZM181.225 359V350.612H183.187V351.782C183.379 351.374 183.685 351.044 184.105 350.792C184.525 350.528 184.999 350.396 185.527 350.396C186.859 350.396 187.741 350.894 188.173 351.89C188.377 351.458 188.713 351.104 189.181 350.828C189.649 350.54 190.171 350.396 190.747 350.396C192.763 350.396 193.771 351.494 193.771 353.69V359H191.809V354.068C191.809 352.736 191.287 352.07 190.243 352.07C189.691 352.07 189.259 352.256 188.947 352.628C188.635 352.988 188.479 353.63 188.479 354.554V359H186.517V354.05C186.517 352.73 186.007 352.07 184.987 352.07C184.423 352.07 183.979 352.256 183.655 352.628C183.343 352.988 183.187 353.63 183.187 354.554V359H181.225ZM203.221 357.974C202.429 358.802 201.355 359.216 199.999 359.216C198.643 359.216 197.563 358.802 196.759 357.974C195.967 357.134 195.571 356.078 195.571 354.806C195.571 353.534 195.967 352.484 196.759 351.656C197.563 350.816 198.643 350.396 199.999 350.396C201.355 350.396 202.429 350.816 203.221 351.656C204.025 352.484 204.427 353.534 204.427 354.806C204.427 356.078 204.025 357.134 203.221 357.974ZM198.181 356.732C198.625 357.224 199.231 357.47 199.999 357.47C200.767 357.47 201.367 357.224 201.799 356.732C202.243 356.24 202.465 355.598 202.465 354.806C202.465 354.014 202.243 353.372 201.799 352.88C201.367 352.388 200.767 352.142 199.999 352.142C199.231 352.142 198.625 352.388 198.181 352.88C197.749 353.372 197.533 354.014 197.533 354.806C197.533 355.598 197.749 356.24 198.181 356.732ZM209.333 359.216C208.385 359.216 207.629 358.934 207.065 358.37C206.501 357.806 206.219 356.978 206.219 355.886V350.612H208.181V355.4C208.181 356.108 208.313 356.642 208.577 357.002C208.841 357.362 209.279 357.542 209.891 357.542C210.599 357.542 211.115 357.344 211.439 356.948C211.763 356.54 211.925 356.006 211.925 355.346V350.612H213.887V359H211.925V357.83C211.409 358.754 210.545 359.216 209.333 359.216ZM216.399 359V350.612H218.361V351.782C218.901 350.858 219.813 350.396 221.097 350.396C223.137 350.396 224.157 351.506 224.157 353.726V359H222.195V354.626C222.195 353.714 222.057 353.06 221.781 352.664C221.505 352.268 221.031 352.07 220.359 352.07C219.723 352.07 219.231 352.274 218.883 352.682C218.535 353.078 218.361 353.648 218.361 354.392V359H216.399ZM230.146 357.344C230.542 357.344 230.872 357.32 231.136 357.272V359C230.728 359.072 230.242 359.108 229.678 359.108C229.354 359.108 229.072 359.084 228.832 359.036C228.592 358.988 228.31 358.88 227.986 358.712C227.662 358.532 227.41 358.226 227.23 357.794C227.05 357.362 226.96 356.816 226.96 356.156V352.25H225.538V350.612H226.96V348.074H228.922V350.612H230.848V352.25H228.922V355.706C228.922 356.378 229.018 356.822 229.21 357.038C229.402 357.242 229.714 357.344 230.146 357.344ZM236.344 359.216C235.036 359.216 234.022 358.802 233.302 357.974C232.582 357.146 232.222 356.09 232.222 354.806C232.222 353.534 232.6 352.484 233.356 351.656C234.112 350.816 235.126 350.396 236.398 350.396C236.962 350.396 237.478 350.516 237.946 350.756C238.414 350.996 238.774 351.326 239.026 351.746V350.612H240.988V359H239.026V357.866C238.786 358.274 238.408 358.604 237.892 358.856C237.388 359.096 236.872 359.216 236.344 359.216ZM236.632 357.47C237.436 357.47 238.048 357.218 238.468 356.714C238.9 356.21 239.116 355.574 239.116 354.806C239.116 354.038 238.9 353.402 238.468 352.898C238.048 352.394 237.436 352.142 236.632 352.142C235.876 352.142 235.276 352.394 234.832 352.898C234.4 353.39 234.184 354.026 234.184 354.806C234.184 355.586 234.4 356.228 234.832 356.732C235.276 357.224 235.876 357.47 236.632 357.47ZM245.538 348.992C245.262 349.268 244.914 349.406 244.494 349.406C244.074 349.406 243.726 349.268 243.45 348.992C243.174 348.704 243.036 348.356 243.036 347.948C243.036 347.54 243.174 347.198 243.45 346.922C243.726 346.634 244.074 346.49 244.494 346.49C244.914 346.49 245.262 346.634 245.538 346.922C245.814 347.198 245.952 347.54 245.952 347.948C245.952 348.356 245.814 348.704 245.538 348.992ZM243.504 359V350.612H245.466V359H243.504ZM247.987 359V350.612H249.949V351.782C250.489 350.858 251.401 350.396 252.685 350.396C254.725 350.396 255.745 351.506 255.745 353.726V359H253.783V354.626C253.783 353.714 253.645 353.06 253.369 352.664C253.093 352.268 252.619 352.07 251.947 352.07C251.311 352.07 250.819 352.274 250.471 352.682C250.123 353.078 249.949 353.648 249.949 354.392V359H247.987ZM260.594 358.694C260.294 358.994 259.934 359.144 259.514 359.144C259.094 359.144 258.734 358.994 258.434 358.694C258.146 358.394 258.002 358.034 258.002 357.614C258.002 357.194 258.146 356.84 258.434 356.552C258.734 356.252 259.094 356.102 259.514 356.102C259.934 356.102 260.294 356.252 260.594 356.552C260.894 356.84 261.044 357.194 261.044 357.614C261.044 358.034 260.894 358.394 260.594 358.694Z" fill="#002886"/>
</svg>
