<svg width="62" height="89" viewBox="0 0 62 89" fill="none" xmlns="http://www.w3.org/2000/svg">
<ellipse opacity="0.4" cx="30.998" cy="84.1428" rx="22.143" ry="4.4286" fill="white"/>
<path fill-rule="evenodd" clip-rule="evenodd" d="M46.7943 4.40599C37.2092 -1.37524 25.316 -1.47351 15.6401 4.14858C5.96428 9.77067 -0.00640303 20.2486 5.15313e-06 31.5955C0.291555 39.9283 3.09376 47.9678 8.02608 54.6222C13.9206 62.594 21.1794 69.4163 29.4535 74.7611C29.9786 75.0797 30.5733 75.2602 31.1839 75.2862C31.8184 75.1874 32.4298 74.9714 32.9879 74.6486C38.4075 71.0915 43.3995 66.9002 47.8619 62.1602C55.5935 53.9846 61.7787 43.4088 61.9996 32.158C62.0534 20.8329 56.2851 10.305 46.7943 4.40599Z" fill="white"/>
<path d="M13.35 38V25.4H15.42V30.818H20.622V25.4H22.692V38H20.622V32.672H15.42V38H13.35ZM32.897 33.374C32.897 33.59 32.879 33.95 32.843 34.454H26.615C26.639 35.114 26.855 35.624 27.263 35.984C27.671 36.332 28.235 36.506 28.955 36.506C29.879 36.506 30.503 36.188 30.827 35.552H32.807C32.675 36.332 32.249 36.974 31.529 37.478C30.821 37.97 29.963 38.216 28.955 38.216C27.635 38.216 26.591 37.82 25.823 37.028C25.055 36.236 24.671 35.162 24.671 33.806C24.671 32.462 25.049 31.394 25.805 30.602C26.573 29.798 27.599 29.396 28.883 29.396C30.083 29.396 31.049 29.768 31.781 30.512C32.525 31.244 32.897 32.198 32.897 33.374ZM26.615 32.96H30.971C30.959 32.312 30.767 31.814 30.395 31.466C30.035 31.118 29.519 30.944 28.847 30.944C28.163 30.944 27.623 31.13 27.227 31.502C26.831 31.874 26.627 32.36 26.615 32.96ZM34.7932 38V29.612H36.7552V31.232C36.8992 30.668 37.1812 30.242 37.6012 29.954C38.0212 29.654 38.4832 29.504 38.9872 29.504C39.3112 29.504 39.5692 29.528 39.7612 29.576V31.376C39.5572 31.352 39.2992 31.34 38.9872 31.34C38.2912 31.34 37.7452 31.598 37.3492 32.114C36.9532 32.618 36.7552 33.344 36.7552 34.292V38H34.7932ZM48.7173 33.374C48.7173 33.59 48.6993 33.95 48.6633 34.454H42.4353C42.4593 35.114 42.6753 35.624 43.0833 35.984C43.4913 36.332 44.0553 36.506 44.7753 36.506C45.6993 36.506 46.3233 36.188 46.6473 35.552H48.6273C48.4953 36.332 48.0693 36.974 47.3493 37.478C46.6413 37.97 45.7833 38.216 44.7753 38.216C43.4553 38.216 42.4113 37.82 41.6433 37.028C40.8753 36.236 40.4913 35.162 40.4913 33.806C40.4913 32.462 40.8693 31.394 41.6253 30.602C42.3933 29.798 43.4193 29.396 44.7033 29.396C45.9033 29.396 46.8693 29.768 47.6013 30.512C48.3453 31.244 48.7173 32.198 48.7173 33.374ZM42.4353 32.96H46.7913C46.7793 32.312 46.5873 31.814 46.2153 31.466C45.8553 31.118 45.3393 30.944 44.6673 30.944C43.9833 30.944 43.4433 31.13 43.0473 31.502C42.6513 31.874 42.4473 32.36 42.4353 32.96Z" fill="#002886"/>
</svg>
