<svg width="706" height="101" viewBox="0 0 706 101" fill="none" xmlns="http://www.w3.org/2000/svg">
<path d="M5 96C35.6597 80.5512 136.183 53.3937 293 68.3547" stroke="#63ACFF" stroke-width="9"/>
<path d="M28.872 39.08C31.8 39.368 34.248 40.568 36.216 42.68C38.232 44.744 39.24 47.504 39.24 50.96C39.24 55.328 37.8 58.76 34.92 61.256C32.088 63.752 28.176 65 23.184 65H5.4V14.6H22.248C27.288 14.6 31.248 15.776 34.128 18.128C37.008 20.432 38.448 23.624 38.448 27.704C38.448 34.04 35.256 37.832 28.872 39.08ZM21.888 21.872H13.68V35.696H21.888C24.48 35.696 26.496 35.096 27.936 33.896C29.424 32.648 30.168 30.944 30.168 28.784C30.168 26.576 29.448 24.872 28.008 23.672C26.568 22.472 24.528 21.872 21.888 21.872ZM23.04 57.728C25.536 57.728 27.48 57.056 28.872 55.712C30.264 54.368 30.96 52.496 30.96 50.096C30.96 47.984 30.24 46.28 28.8 44.984C27.36 43.64 25.464 42.968 23.112 42.968H13.68V57.728H23.04ZM79.5412 46.496C79.5412 47.36 79.4692 48.8 79.3252 50.816H54.4132C54.5092 53.456 55.3732 55.496 57.0052 56.936C58.6372 58.328 60.8932 59.024 63.7732 59.024C67.4692 59.024 69.9652 57.752 71.2612 55.208H79.1812C78.6532 58.328 76.9492 60.896 74.0692 62.912C71.2372 64.88 67.8052 65.864 63.7732 65.864C58.4932 65.864 54.3172 64.28 51.2452 61.112C48.1732 57.944 46.6372 53.648 46.6372 48.224C46.6372 42.848 48.1492 38.576 51.1732 35.408C54.2452 32.192 58.3492 30.584 63.4852 30.584C68.2852 30.584 72.1492 32.072 75.0772 35.048C78.0532 37.976 79.5412 41.792 79.5412 46.496ZM54.4132 44.84H71.8372C71.7892 42.248 71.0212 40.256 69.5332 38.864C68.0932 37.472 66.0292 36.776 63.3412 36.776C60.6052 36.776 58.4452 37.52 56.8612 39.008C55.2772 40.496 54.4612 42.44 54.4132 44.84ZM100.862 65.864C96.6379 65.864 93.2059 64.784 90.5659 62.624C87.9259 60.464 86.6059 57.824 86.6059 54.704H94.4539C94.4539 56.144 95.0779 57.32 96.3259 58.232C97.6219 59.144 99.2779 59.6 101.294 59.6C102.782 59.6 103.958 59.24 104.822 58.52C105.686 57.8 106.118 56.84 106.118 55.64C106.118 53.72 105.278 52.544 103.598 52.112L94.9579 49.736C90.1099 48.392 87.6859 45.296 87.6859 40.448C87.6859 37.664 88.8859 35.336 91.2859 33.464C93.6859 31.544 96.7819 30.584 100.574 30.584C104.846 30.584 108.11 31.544 110.366 33.464C112.67 35.384 113.822 37.904 113.822 41.024H106.118C106.118 39.632 105.59 38.552 104.534 37.784C103.526 36.968 102.11 36.56 100.286 36.56C98.8939 36.56 97.7419 36.896 96.8299 37.568C95.9179 38.192 95.4619 39.008 95.4619 40.016C95.4619 41.84 96.4219 43.04 98.3419 43.616L106.334 45.92C108.638 46.592 110.51 47.744 111.95 49.376C113.39 50.96 114.11 52.808 114.11 54.92C114.11 58.184 112.934 60.824 110.582 62.84C108.278 64.856 105.038 65.864 100.862 65.864ZM138.521 58.376C140.105 58.376 141.425 58.28 142.481 58.088V65C140.849 65.288 138.905 65.432 136.649 65.432C135.353 65.432 134.225 65.336 133.265 65.144C132.305 64.952 131.177 64.52 129.881 63.848C128.585 63.128 127.577 61.904 126.857 60.176C126.137 58.448 125.777 56.264 125.777 53.624V38H120.089V31.448H125.777V21.296H133.625V31.448H141.329V38H133.625V51.824C133.625 54.512 134.009 56.288 134.777 57.152C135.545 57.968 136.793 58.376 138.521 58.376ZM187.176 66.224C181.32 66.224 176.784 64.688 173.568 61.616C170.4 58.544 168.816 54.176 168.816 48.512H177.096C177.096 51.776 177.984 54.344 179.76 56.216C181.536 58.088 183.984 59.024 187.104 59.024C189.84 59.024 191.928 58.424 193.368 57.224C194.856 55.976 195.6 54.224 195.6 51.968C195.6 50.048 195.048 48.512 193.944 47.36C192.888 46.208 190.944 45.056 188.112 43.904L179.904 40.592C173.472 38.096 170.256 33.632 170.256 27.2C170.256 23.12 171.744 19.808 174.72 17.264C177.744 14.672 181.632 13.376 186.384 13.376C191.376 13.376 195.384 14.816 198.408 17.696C201.48 20.576 203.016 24.392 203.016 29.144H194.736C194.736 26.36 193.992 24.224 192.504 22.736C191.016 21.2 188.88 20.432 186.096 20.432C183.744 20.432 181.896 21.008 180.552 22.16C179.256 23.264 178.608 24.776 178.608 26.696C178.608 28.424 179.256 29.912 180.552 31.16C181.848 32.408 183.984 33.632 186.96 34.832L194.376 37.856C200.712 40.448 203.88 45.08 203.88 51.752C203.88 56.072 202.344 59.576 199.272 62.264C196.2 64.904 192.168 66.224 187.176 66.224ZM227.391 65.864C222.159 65.864 218.103 64.208 215.223 60.896C212.343 57.584 210.903 53.36 210.903 48.224C210.903 43.136 212.415 38.936 215.439 35.624C218.463 32.264 222.519 30.584 227.607 30.584C229.863 30.584 231.927 31.064 233.799 32.024C235.671 32.984 237.111 34.304 238.119 35.984V31.448H245.967V65H238.119V60.464C237.159 62.096 235.647 63.416 233.583 64.424C231.567 65.384 229.503 65.864 227.391 65.864ZM228.543 58.88C231.759 58.88 234.207 57.872 235.887 55.856C237.615 53.84 238.479 51.296 238.479 48.224C238.479 45.152 237.615 42.608 235.887 40.592C234.207 38.576 231.759 37.568 228.543 37.568C225.519 37.568 223.119 38.576 221.343 40.592C219.615 42.56 218.751 45.104 218.751 48.224C218.751 51.344 219.615 53.912 221.343 55.928C223.119 57.896 225.519 58.88 228.543 58.88ZM258.032 65V14.6H265.88V65H258.032ZM308.346 46.496C308.346 47.36 308.274 48.8 308.13 50.816H283.218C283.314 53.456 284.178 55.496 285.81 56.936C287.442 58.328 289.698 59.024 292.578 59.024C296.274 59.024 298.77 57.752 300.066 55.208H307.986C307.458 58.328 305.754 60.896 302.874 62.912C300.042 64.88 296.61 65.864 292.578 65.864C287.298 65.864 283.122 64.28 280.05 61.112C276.978 57.944 275.442 53.648 275.442 48.224C275.442 42.848 276.954 38.576 279.978 35.408C283.05 32.192 287.154 30.584 292.29 30.584C297.09 30.584 300.954 32.072 303.882 35.048C306.858 37.976 308.346 41.792 308.346 46.496ZM283.218 44.84H300.642C300.594 42.248 299.826 40.256 298.338 38.864C296.898 37.472 294.834 36.776 292.146 36.776C289.41 36.776 287.25 37.52 285.666 39.008C284.082 40.496 283.266 42.44 283.218 44.84ZM347.867 65V22.376H333.251V14.6H370.835V22.376H356.147V65H347.867ZM397.043 30.584C405.203 30.584 409.283 35.024 409.283 43.904V65H401.435V47.504C401.435 43.856 400.883 41.24 399.779 39.656C398.675 38.072 396.779 37.28 394.091 37.28C391.547 37.28 389.579 38.096 388.187 39.728C386.795 41.312 386.099 43.592 386.099 46.568V65H378.251V14.6H386.099V36.128C388.259 32.432 391.907 30.584 397.043 30.584ZM429.168 24.968C428.064 26.072 426.672 26.624 424.992 26.624C423.312 26.624 421.92 26.072 420.816 24.968C419.712 23.816 419.16 22.424 419.16 20.792C419.16 19.16 419.712 17.792 420.816 16.688C421.92 15.536 423.312 14.96 424.992 14.96C426.672 14.96 428.064 15.536 429.168 16.688C430.272 17.792 430.824 19.16 430.824 20.792C430.824 22.424 430.272 23.816 429.168 24.968ZM421.032 65V31.448H428.88V65H421.032ZM452.698 65.864C448.474 65.864 445.042 64.784 442.402 62.624C439.762 60.464 438.442 57.824 438.442 54.704H446.29C446.29 56.144 446.914 57.32 448.162 58.232C449.458 59.144 451.114 59.6 453.13 59.6C454.618 59.6 455.794 59.24 456.658 58.52C457.522 57.8 457.954 56.84 457.954 55.64C457.954 53.72 457.114 52.544 455.434 52.112L446.794 49.736C441.946 48.392 439.522 45.296 439.522 40.448C439.522 37.664 440.722 35.336 443.122 33.464C445.522 31.544 448.618 30.584 452.41 30.584C456.682 30.584 459.946 31.544 462.202 33.464C464.506 35.384 465.658 37.904 465.658 41.024H457.954C457.954 39.632 457.426 38.552 456.37 37.784C455.362 36.968 453.946 36.56 452.122 36.56C450.73 36.56 449.578 36.896 448.666 37.568C447.754 38.192 447.298 39.008 447.298 40.016C447.298 41.84 448.258 43.04 450.178 43.616L458.17 45.92C460.474 46.592 462.346 47.744 463.786 49.376C465.226 50.96 465.946 52.808 465.946 54.92C465.946 58.184 464.77 60.824 462.418 62.84C460.114 64.856 456.874 65.864 452.698 65.864ZM496.228 65V14.6H504.148L520.276 53.192L536.332 14.6H544.252V65H536.332V31.664L523.372 65H517.108L504.148 31.304V65H496.228ZM584.8 60.896C581.632 64.208 577.336 65.864 571.912 65.864C566.488 65.864 562.168 64.208 558.952 60.896C555.784 57.536 554.2 53.312 554.2 48.224C554.2 43.136 555.784 38.936 558.952 35.624C562.168 32.264 566.488 30.584 571.912 30.584C577.336 30.584 581.632 32.264 584.8 35.624C588.016 38.936 589.624 43.136 589.624 48.224C589.624 53.312 588.016 57.536 584.8 60.896ZM564.64 55.928C566.416 57.896 568.84 58.88 571.912 58.88C574.984 58.88 577.384 57.896 579.112 55.928C580.888 53.96 581.776 51.392 581.776 48.224C581.776 45.056 580.888 42.488 579.112 40.52C577.384 38.552 574.984 37.568 571.912 37.568C568.84 37.568 566.416 38.552 564.64 40.52C562.912 42.488 562.048 45.056 562.048 48.224C562.048 51.392 562.912 53.96 564.64 55.928ZM599.149 65V31.448H606.997V36.128C609.157 32.432 612.805 30.584 617.941 30.584C626.101 30.584 630.181 35.024 630.181 43.904V65H622.333V47.504C622.333 43.856 621.781 41.24 620.677 39.656C619.573 38.072 617.677 37.28 614.989 37.28C612.445 37.28 610.477 38.096 609.085 39.728C607.693 41.312 606.997 43.592 606.997 46.568V65H599.149ZM656.138 58.376C657.722 58.376 659.042 58.28 660.098 58.088V65C658.466 65.288 656.522 65.432 654.266 65.432C652.97 65.432 651.842 65.336 650.882 65.144C649.922 64.952 648.794 64.52 647.498 63.848C646.202 63.128 645.194 61.904 644.474 60.176C643.754 58.448 643.394 56.264 643.394 53.624V38H637.706V31.448H643.394V21.296H651.242V31.448H658.946V38H651.242V51.824C651.242 54.512 651.626 56.288 652.394 57.152C653.162 57.968 654.41 58.376 656.138 58.376ZM688.105 30.584C696.265 30.584 700.345 35.024 700.345 43.904V65H692.497V47.504C692.497 43.856 691.945 41.24 690.841 39.656C689.737 38.072 687.841 37.28 685.153 37.28C682.609 37.28 680.641 38.096 679.249 39.728C677.857 41.312 677.161 43.592 677.161 46.568V65H669.313V14.6H677.161V36.128C679.321 32.432 682.969 30.584 688.105 30.584Z" fill="#002886"/>
</svg>
